<svg width="139" height="28" viewBox="0 0 139 28" fill="none" xmlns="http://www.w3.org/2000/svg">
<path d="M50.9992 0.8988H56.266L65.2204 17.0968L74.1748 0.8988H79.3268V27.5156H75.0316V7.1176L67.1804 21.2436H63.1512L55.3 7.1176V27.5156H51.0048V0.8988H50.9992ZM93.184 27.9916C91.1932 27.9916 89.446 27.552 87.9368 26.67C86.4276 25.788 85.2516 24.57 84.4116 23.0104C83.5688 21.4508 83.146 19.6644 83.146 17.6484C83.146 15.6072 83.5576 13.8012 84.3808 12.2304C85.204 10.6596 86.3492 9.4304 87.8136 8.5428C89.278 7.6552 90.9608 7.2128 92.862 7.2128C94.7492 7.2128 96.376 7.6608 97.7396 8.554C99.1004 9.4472 100.15 10.6988 100.887 12.3088C101.62 13.9188 101.99 15.806 101.99 17.9732V19.152H87.4076C87.6736 20.776 88.3288 22.0528 89.376 22.9824C90.4204 23.9148 91.742 24.3796 93.3408 24.3796C94.6204 24.3796 95.7236 24.1892 96.6476 23.8084C97.5716 23.4276 98.4396 22.8508 99.2516 22.078L101.534 24.8724C99.2628 26.9528 96.4796 27.9916 93.184 27.9916ZM96.3228 12.2024C95.424 11.284 94.2452 10.8248 92.7864 10.8248C91.3668 10.8248 90.1796 11.2952 89.222 12.2304C88.2644 13.1684 87.6596 14.4284 87.4076 16.0132H97.8628C97.734 14.392 97.2216 13.1208 96.3228 12.2024ZM107.198 11.2028H103.244V7.686H107.198V1.8704H111.342V7.6888H117.348V11.2056H111.339V20.1208C111.339 21.6048 111.594 22.6632 112.101 23.296C112.608 23.9288 113.476 24.248 114.705 24.2452C115.251 24.2452 115.713 24.2228 116.094 24.178C116.474 24.1332 116.892 24.0744 117.348 23.996V27.4764C116.827 27.6276 116.298 27.7424 115.76 27.818C115.147 27.9076 114.528 27.9524 113.907 27.9524C109.432 27.9524 107.195 25.5052 107.195 20.6136L107.198 11.2028ZM138.947 27.5156H134.879V24.7408C134.156 25.7796 133.238 26.5832 132.124 27.146C131.009 27.7088 129.741 27.9916 128.321 27.9916C126.571 27.9916 125.023 27.5436 123.673 26.6504C122.324 25.7572 121.262 24.528 120.49 22.9628C119.717 21.3976 119.33 19.6084 119.33 17.5924C119.33 15.5652 119.722 13.7704 120.509 12.2108C121.296 10.6512 122.382 9.4304 123.768 8.5428C125.157 7.6552 126.75 7.2128 128.551 7.2128C129.906 7.2128 131.124 7.476 132.202 8.0024C133.266 8.5176 134.184 9.2848 134.882 10.2368V7.6888H138.95L138.947 27.5156ZM134.803 14.6272C134.358 13.4988 133.658 12.6084 132.703 11.956C131.746 11.3036 130.64 10.976 129.385 10.976C127.61 10.976 126.199 11.5724 125.146 12.7624C124.093 13.9524 123.567 15.5624 123.567 17.5924C123.567 19.6336 124.074 21.2492 125.087 22.4392C126.101 23.632 127.476 24.2256 129.212 24.2256C130.491 24.2256 131.631 23.8952 132.633 23.2372C133.636 22.5792 134.358 21.6916 134.8 20.5744L134.803 14.6272ZM30.24 0C26.7848 0 24.0856 2.6012 21.6384 5.908C18.2784 1.6296 15.47 0 12.1072 0C5.2528 0 0 8.9208 0 18.3652C0 24.2732 2.8588 28 7.6468 28C11.0936 28 13.5716 26.376 17.9788 18.6732C17.9788 18.6732 19.8156 15.4308 21.0784 13.1964C21.5208 13.9104 21.9884 14.6804 22.4784 15.5064L24.5448 18.9812C28.5684 25.7152 30.8112 28 34.8768 28C39.5416 28 42.1372 24.2228 42.1372 18.1916C42.1344 8.3048 36.764 0 30.24 0ZM14.6188 16.5872C11.046 22.1872 9.8112 23.4416 7.8204 23.4416C5.7736 23.4416 4.5556 21.644 4.5556 18.4408C4.5556 11.5864 7.9744 4.5752 12.0484 4.5752C14.2548 4.5752 16.1 5.8492 18.9224 9.8924C16.2428 14.0084 14.6188 16.5872 14.6188 16.5872ZM28.1008 15.8816L25.6312 11.7628C24.962 10.6764 24.3208 9.674 23.7048 8.7612C25.928 5.3228 27.7648 3.612 29.9516 3.612C34.4904 3.612 38.1192 10.2928 38.1192 18.4996C38.1192 21.6272 37.0944 23.4444 34.972 23.4444C32.9364 23.4416 31.9648 22.0976 28.1008 15.8816Z" fill="black"/>
</svg>
