<svg width="24" height="24" viewBox="0 0 24 24" fill="none" xmlns="http://www.w3.org/2000/svg">
<g opacity="0.7">
<path fill-rule="evenodd" clip-rule="evenodd" d="M7.50781 5.20451V5.20451C7.51823 4.7651 7.82823 4.39 8.25781 4.29701C12.0716 3.68006 15.885 5.09801 19.6987 4.67066C19.9771 4.63435 20.2322 4.83058 20.2685 5.10896C20.2844 5.23105 20.2555 5.35478 20.187 5.45715C19.365 7.04032 18.543 8.53008 17.7211 9.96525C17.6882 10.0237 17.6882 10.0951 17.7211 10.1536C18.543 11.6296 19.365 13.0509 20.187 14.379C20.3429 14.6963 20.212 15.08 19.8947 15.2358C19.833 15.2661 19.7669 15.2863 19.6988 15.2956C15.885 15.7229 12.0715 14.305 8.25789 14.9219C7.93146 15.0005 7.6031 14.7997 7.52449 14.4732C7.51175 14.4204 7.50617 14.366 7.50789 14.3116C7.51829 13.8722 7.8283 13.4971 8.25789 13.4041V5.81475C7.9315 5.89343 7.60312 5.69262 7.52444 5.36623C7.51168 5.31331 7.50609 5.25892 7.50781 5.20451V5.20451ZM6.75781 4.50806V21.0081C6.75781 21.4223 6.42203 21.7581 6.00781 21.7581C5.5936 21.7581 5.25781 21.4223 5.25781 21.0081V4.50806V4.50806C5.25781 4.09384 5.5936 3.75806 6.00781 3.75806C6.42203 3.75806 6.75781 4.09384 6.75781 4.50806V4.50806Z" fill="#D1D5DB"/>
</g>
</svg>
