<svg width="60" height="60" viewBox="0 0 60 60" fill="none" xmlns="http://www.w3.org/2000/svg">
<g clip-path="url(#clip0_9887_4223)">
<path fill-rule="evenodd" clip-rule="evenodd" d="M0.210896 31.2814C-0.459474 14.7777 12.3776 0.855476 28.8813 0.185105H28.8776C29.2887 0.166587 29.6998 0.15918 30.1109 0.15918C46.0702 0.15918 59.322 12.7629 59.9739 28.8555C59.9924 29.2407 59.9998 29.6296 59.9998 30.0184V30.1592C59.9627 46.0888 47.3739 59.2999 31.3072 59.9518C14.8035 60.6221 0.881267 47.7851 0.210896 31.2814ZM30.0963 53.2781C17.2778 53.2781 6.88889 42.8892 6.88889 30.0707C6.88889 17.2558 17.2778 6.86325 30.0963 6.86325C42.9148 6.86325 53.3037 17.2521 53.3037 30.0707C53.3037 42.8892 42.9148 53.2781 30.0963 53.2781Z" fill="#111111"/>
<path fill-rule="evenodd" clip-rule="evenodd" d="M42.2553 38.2926C42.1479 39.2704 41.7997 40.0223 41.2034 40.5408C40.6108 41.0593 39.8182 41.3186 38.8331 41.3186C38.1442 41.3186 37.5331 41.1445 37.0034 40.8C36.4738 40.4556 36.0627 39.9667 35.7738 39.3334C35.4849 38.7 35.3368 37.9778 35.3331 37.1667V35.9593C35.3331 35.1334 35.4775 34.4 35.7664 33.763C36.0553 33.126 36.4701 32.6334 37.0145 32.2852C37.559 31.9371 38.1812 31.7667 38.8886 31.7667C39.8849 31.7667 40.6701 32.0334 41.2479 32.5704C41.8257 33.1074 42.159 33.8482 42.2516 34.8H41.459C41.2627 33.2223 40.4071 32.4297 38.8849 32.4297C38.0442 32.4297 37.3701 32.7445 36.8701 33.3741C36.3701 34.0037 36.122 34.8741 36.122 35.9889V37.126C36.122 38.2 36.3664 39.0556 36.8516 39.6926C37.3405 40.3334 37.996 40.6519 38.8294 40.6519C39.6627 40.6519 40.2701 40.4556 40.6886 40.063C41.1071 39.6704 41.3627 39.0778 41.4627 38.2926H42.2553ZM33.8257 37.0482C33.8257 37.9037 33.6775 38.6556 33.3812 39.3C33.0849 39.9482 32.6627 40.4445 32.1145 40.7926C31.5664 41.1408 30.9294 41.3149 30.2108 41.3149C29.1257 41.3149 28.2479 40.926 27.5812 40.1482C26.9145 39.3704 26.5775 38.3223 26.5775 37.0037V36.0482C26.5775 35.2 26.7257 34.4519 27.0257 33.7963C27.3257 33.1445 27.7516 32.6408 28.2997 32.2889C28.8479 31.9371 29.4812 31.763 30.196 31.763C30.9108 31.763 31.5405 31.9371 32.0886 32.2815C32.6368 32.626 33.059 33.1149 33.3553 33.7445C33.6553 34.3741 33.8108 35.1037 33.822 35.9334V37.0445L33.8257 37.0482ZM33.0405 36.0408C33.0405 34.9223 32.7886 34.0445 32.2812 33.4111C31.7738 32.7778 31.0812 32.4593 30.1997 32.4593C29.3182 32.4593 28.6479 32.7778 28.1331 33.4149C27.6182 34.0519 27.3627 34.9408 27.3627 36.0815V37.0519C27.3627 38.1556 27.6182 39.0297 28.1294 39.6741C28.6405 40.3186 29.3331 40.6408 30.2108 40.6408C31.0886 40.6408 31.796 40.3223 32.2923 39.6852C32.7923 39.0482 33.0405 38.163 33.0405 37.026V36.0408ZM24.6034 38.9074C24.6034 38.3926 24.422 37.9852 24.059 37.6852C23.696 37.3852 23.0368 37.1 22.0738 36.8297C21.1108 36.5593 20.4108 36.2667 19.9664 35.9445C19.3368 35.4926 19.022 34.9 19.022 34.1704C19.022 33.4408 19.3145 32.8815 19.8997 32.4371C20.4849 31.9926 21.2331 31.7704 22.1442 31.7704C22.7627 31.7704 23.3145 31.8889 23.7997 32.1297C24.2886 32.3667 24.6664 32.7 24.9331 33.126C25.1997 33.5519 25.3368 34.026 25.3368 34.5482H24.5442C24.5442 33.9111 24.3257 33.4 23.8923 33.0149C23.459 32.6297 22.8738 32.4371 22.1442 32.4371C21.4145 32.4371 20.8664 32.5963 20.4479 32.9149C20.0257 33.2334 19.8145 33.6482 19.8145 34.1593C19.8145 34.6334 20.0034 35.0186 20.3812 35.3149C20.759 35.6111 21.3664 35.8778 22.1997 36.1037C23.0331 36.3334 23.6664 36.5667 24.096 36.8149C24.5257 37.0593 24.8516 37.3519 25.0664 37.6926C25.2849 38.0334 25.3923 38.4371 25.3923 38.9C25.3923 39.6334 25.0997 40.2186 24.5145 40.663C23.9294 41.1074 23.159 41.326 22.1997 41.326C21.5442 41.326 20.9442 41.2074 20.396 40.9741C19.8479 40.7408 19.4331 40.4112 19.1516 39.9889C18.8701 39.5667 18.7257 39.0852 18.7257 38.5408H19.5108C19.5108 39.1963 19.7553 39.7149 20.2442 40.0926C20.7331 40.4704 21.3849 40.6593 22.1997 40.6593C22.922 40.6593 23.5034 40.5 23.9405 40.1815C24.3775 39.863 24.5997 39.4371 24.5997 38.9111M46.0812 23.4852H41.859L40.9034 26.0963H40.0812L43.5997 16.8H44.3442L47.8627 26.0963H47.0442L46.0812 23.4852ZM42.1034 22.8223H45.8331L43.9701 17.7593L42.1071 22.8223H42.1034ZM34.8108 22.3111V26.0963H34.0257V16.8H37.1923C38.159 16.8 38.922 17.0482 39.4812 17.5408C40.0405 18.0334 40.322 18.7112 40.322 19.5778C40.322 20.4445 40.0516 21.1223 39.5145 21.6C38.9775 22.0741 38.196 22.3111 37.1738 22.3111H34.8108ZM34.8108 21.6482H37.1923C37.9553 21.6482 38.5331 21.4667 38.9368 21.1037C39.3368 20.7408 39.5368 20.2371 39.5368 19.5889C39.5368 18.9408 39.3368 18.4334 38.9405 18.0519C38.5442 17.6704 37.9775 17.4741 37.2442 17.4667H34.8108V21.6482ZM32.2479 23.1963C32.1405 24.1741 31.7923 24.926 31.196 25.4445C30.6034 25.963 29.8108 26.2223 28.8257 26.2223C28.1368 26.2223 27.5257 26.0482 26.996 25.7037C26.4664 25.3593 26.0553 24.8704 25.7664 24.2371C25.4775 23.6037 25.3294 22.8815 25.3257 22.0704V20.863C25.3257 20.0371 25.4701 19.3037 25.759 18.6667C26.0479 18.0297 26.4664 17.5371 27.0071 17.1889C27.5516 16.8408 28.1738 16.6704 28.8812 16.6704C29.8775 16.6704 30.6627 16.9371 31.2405 17.4741C31.8182 18.0112 32.1516 18.7519 32.2442 19.7037H31.4516C31.2553 18.126 30.3997 17.3334 28.8812 17.3334C28.0368 17.3334 27.3664 17.6482 26.8664 18.2778C26.3664 18.9074 26.1182 19.7778 26.1182 20.8889V22.026C26.1182 23.1 26.3627 23.9556 26.8479 24.5926C27.3368 25.2297 27.9923 25.5519 28.822 25.5519C29.6516 25.5519 30.2627 25.3556 30.6812 24.963C31.096 24.5704 31.3553 23.9778 31.4516 23.1926H32.2442L32.2479 23.1963ZM22.4886 26.0963H23.2738V16.8H22.4886V26.0963ZM19.2997 23.4852H15.0812L14.122 26.0963H13.2997L16.8183 16.8H17.5664L21.0849 26.0963H20.2664L19.3034 23.4852H19.2997ZM15.322 22.8223H19.0516L17.1886 17.7593L15.3257 22.8223H15.322ZM55.9257 22.0963C55.8664 22.1112 55.8257 22.1482 55.8108 22.2112C55.7923 22.2704 55.7886 22.3593 55.7997 22.4778C55.8108 22.5963 55.8071 22.7 55.7923 22.7889C55.7627 22.9778 55.6701 23.0963 55.5182 23.1408C55.3886 23.1778 55.2664 23.1556 55.1516 23.0741C55.0331 22.9926 54.9516 22.8704 54.8997 22.7037C54.8479 22.526 54.8479 22.3704 54.9034 22.2371C54.959 22.1037 55.0553 22.0149 55.196 21.9741L55.296 22.3074C55.2331 22.326 55.1849 22.363 55.159 22.426C55.1294 22.4852 55.1294 22.5556 55.1516 22.6334C55.1738 22.7074 55.2071 22.7593 55.2553 22.7963C55.3034 22.8334 55.3553 22.8445 55.4108 22.826C55.4627 22.8111 55.496 22.7778 55.5108 22.726C55.5257 22.6741 55.5294 22.5778 55.5182 22.4408C55.5071 22.3 55.5108 22.1889 55.5294 22.1037C55.5442 22.026 55.5738 21.9556 55.6219 21.8963C55.6738 21.8408 55.7331 21.8 55.8071 21.7815C55.9405 21.7408 56.0664 21.763 56.1775 21.8519C56.2923 21.9371 56.3775 22.0704 56.4294 22.2482C56.4664 22.3704 56.4738 22.4852 56.459 22.5926C56.4479 22.6963 56.4071 22.7852 56.3442 22.8667C56.2812 22.9408 56.2071 22.9926 56.1219 23.0186L56.0257 22.6963C56.1034 22.6667 56.1553 22.6223 56.1812 22.5519C56.2071 22.4852 56.2071 22.4074 56.1812 22.3149C56.1553 22.226 56.1182 22.1667 56.0738 22.1297C56.0294 22.0926 55.9775 22.0815 55.922 22.1M55.396 24.4926L55.5664 24.4445C55.4071 24.3667 55.3034 24.2334 55.2627 24.0556C55.1886 23.7408 55.3331 23.5408 55.6886 23.4519L56.6812 23.2223L56.759 23.5593L55.7849 23.7852C55.6886 23.8074 55.6257 23.8445 55.5886 23.8963C55.5516 23.9482 55.5442 24.0223 55.5664 24.1149C55.596 24.2519 55.6812 24.3371 55.822 24.3741L56.8923 24.126L56.9701 24.463L55.4701 24.8111L55.396 24.4926ZM56.5071 26.3704C56.359 26.3963 56.2182 26.3889 56.0886 26.3482C55.9627 26.3111 55.859 26.2445 55.7701 26.1445C55.6849 26.0408 55.6331 25.926 55.6108 25.7926C55.5775 25.5889 55.6145 25.4111 55.7257 25.2593C55.8368 25.1111 55.9997 25.0112 56.2182 24.963L56.2997 24.9482C56.4405 24.9223 56.5775 24.9297 56.7145 24.9667C56.8405 25.0037 56.9479 25.0704 57.0294 25.1667C57.1108 25.263 57.1664 25.3815 57.1886 25.5223C57.2257 25.7371 57.1812 25.9186 57.059 26.0741C56.9368 26.226 56.759 26.3223 56.5182 26.363H56.4997L56.5071 26.3704ZM56.4812 26.026C56.6368 26 56.7553 25.9482 56.8331 25.8667C56.9108 25.7889 56.9405 25.6889 56.922 25.5741C56.9071 25.4593 56.8479 25.3778 56.7405 25.326C56.6405 25.2778 56.5034 25.2667 56.3294 25.2963C56.1775 25.3223 56.059 25.3741 55.9812 25.4556C55.8997 25.5371 55.8701 25.6334 55.8923 25.7482C55.9071 25.8593 55.9664 25.9408 56.0701 25.9926C56.1701 26.0445 56.3071 26.0556 56.4849 26.026M55.4368 27.2074C55.3849 27.2149 55.3405 27.2037 55.2997 27.1741C55.2627 27.1445 55.2368 27.1 55.2294 27.0371C55.2219 26.9741 55.2331 26.926 55.2664 26.8852C55.2997 26.8445 55.3405 26.8223 55.3923 26.8186C55.4442 26.8112 55.4886 26.8223 55.5294 26.8556C55.5664 26.8852 55.5923 26.9334 55.5997 26.9926C55.6071 27.0556 55.596 27.1037 55.5664 27.1408C55.5331 27.1815 55.4923 27.2 55.4442 27.2074H55.4368ZM57.322 26.6111L57.3627 26.9556L55.8331 27.1371L55.7923 26.7926L57.322 26.6111ZM55.5145 27.7186L55.8886 27.6852L55.8664 27.4149L56.1219 27.3926L56.1442 27.663L56.9997 27.5889C57.059 27.5852 57.0997 27.5667 57.1257 27.5445C57.1479 27.5186 57.159 27.4778 57.1516 27.4186C57.1516 27.3778 57.1405 27.3371 57.1257 27.3L57.3923 27.2778C57.422 27.3556 57.4368 27.4297 57.4442 27.5037C57.4664 27.7704 57.3331 27.9149 57.0405 27.9408L56.1701 28.0149L56.1923 28.2667L55.9368 28.2889L55.9145 28.0371L55.5405 28.0704L55.5108 27.726L55.5145 27.7186ZM57.5071 28.7037C57.4627 28.726 57.4145 28.7408 57.3664 28.7482C57.4849 28.8519 57.5479 28.9852 57.5553 29.1445C57.5627 29.3 57.522 29.426 57.4368 29.5297C57.3516 29.6297 57.2442 29.6852 57.1145 29.6889C56.9516 29.6963 56.822 29.6408 56.7294 29.5223C56.6368 29.4037 56.5849 29.2297 56.5775 29.0037L56.5701 28.7926H56.4701C56.3886 28.8 56.3257 28.826 56.2812 28.8704C56.2368 28.9186 56.2145 28.9852 56.2182 29.0778C56.2182 29.1482 56.2405 29.2149 56.2849 29.2704C56.3257 29.3186 56.3775 29.3408 56.4368 29.3408L56.4516 29.6852C56.3627 29.6852 56.2812 29.663 56.2108 29.6111C56.1294 29.5519 56.0701 29.4778 56.0294 29.3889C55.9812 29.2889 55.959 29.1815 55.9553 29.0704C55.9479 28.8889 55.9886 28.7445 56.0738 28.6334C56.159 28.5223 56.2849 28.463 56.4479 28.4519L57.1442 28.426C57.2812 28.4223 57.3923 28.3963 57.4738 28.3556H57.4997L57.5145 28.7074L57.5071 28.7037ZM57.2701 29.0963C57.2701 29.0297 57.2479 28.963 57.2145 28.9074C57.1812 28.8519 57.1368 28.8074 57.0738 28.7778L56.7849 28.7889L56.7923 28.9741C56.796 29.1037 56.8219 29.1963 56.8701 29.2593C56.9182 29.3223 56.9812 29.3519 57.0627 29.3482C57.1257 29.3482 57.1775 29.326 57.2183 29.2778C57.2553 29.2334 57.2738 29.1741 57.2701 29.0963ZM57.2516 30.7815L57.2664 29.9593H57.5442L57.5182 31.2149H57.2923L56.2701 30.4074L56.2553 31.1741H55.9738L55.996 29.963H56.2145L57.2442 30.7778L57.2516 30.7815ZM55.5368 31.8371C55.4849 31.8371 55.4442 31.8149 55.4071 31.7778C55.3738 31.7408 55.359 31.6926 55.3627 31.6297C55.3627 31.5667 55.3886 31.5186 55.4257 31.4889C55.4664 31.4556 55.5108 31.4408 55.5627 31.4445C55.6145 31.4445 55.6553 31.4667 55.6886 31.5037C55.722 31.5408 55.7368 31.5889 55.7331 31.6519C55.7331 31.7149 55.7108 31.763 55.6738 31.7926C55.6368 31.826 55.5923 31.8408 55.5405 31.8334L55.5368 31.8371ZM57.496 31.5889L57.4738 31.9334L55.9368 31.8408L55.9553 31.4963L57.496 31.5889ZM55.8182 33.1482L55.996 33.1556C55.8701 33.0297 55.8182 32.8741 55.8368 32.6889C55.8701 32.3704 56.0701 32.226 56.4368 32.2593L57.4516 32.3667L57.4145 32.7111L56.4219 32.6037C56.3257 32.5926 56.2516 32.6074 56.1997 32.6445C56.1479 32.6815 56.1183 32.7482 56.1071 32.8445C56.0923 32.9852 56.1442 33.0926 56.2627 33.1741L57.3553 33.2889L57.3182 33.6334L55.7849 33.4704L55.8182 33.1445V33.1482ZM57.2071 34.3556C57.1775 34.3667 57.1257 34.3704 57.059 34.3704C57.1553 34.4963 57.1886 34.6408 57.1627 34.7963C57.1368 34.9482 57.0738 35.0667 56.9701 35.1482C56.8664 35.2334 56.7516 35.263 56.622 35.2371C56.459 35.2111 56.3479 35.1297 56.2775 34.9926C56.2108 34.8556 56.196 34.6778 56.2331 34.4556L56.2701 34.2445L56.1701 34.226C56.0923 34.2149 56.0257 34.226 55.9701 34.2593C55.9145 34.2963 55.8812 34.3593 55.8664 34.4482C55.8516 34.5186 55.859 34.5852 55.8923 34.6482C55.922 34.7037 55.9664 34.7371 56.0294 34.7482L55.9738 35.0889C55.8849 35.0741 55.8145 35.0334 55.7553 34.9667C55.6886 34.8926 55.6442 34.8074 55.6219 34.7149C55.596 34.6037 55.5923 34.4963 55.6145 34.3852C55.6442 34.2074 55.7145 34.0741 55.822 33.9815C55.9294 33.8926 56.0627 33.8593 56.2257 33.8815L56.9108 33.9963C57.0479 34.0186 57.159 34.0186 57.2479 33.9963H57.2701L57.2108 34.3482L57.2071 34.3556ZM56.896 34.6926C56.9071 34.626 56.8997 34.5593 56.8775 34.4926C56.8553 34.4297 56.822 34.3778 56.7664 34.3371L56.4812 34.2889L56.4516 34.4741C56.4294 34.6 56.4368 34.7 56.4701 34.7704C56.5034 34.8445 56.559 34.8852 56.6405 34.8963C56.7034 34.9112 56.759 34.8963 56.8071 34.8556C56.8553 34.8186 56.8812 34.763 56.896 34.6926ZM55.896 36.8445C55.6627 36.7889 55.4886 36.6926 55.3775 36.5482C55.2627 36.4074 55.2294 36.2445 55.2701 36.063C55.3108 35.8926 55.3997 35.7704 55.5442 35.7L55.396 35.6482L55.4664 35.3445L56.922 35.6852C57.1182 35.7297 57.259 35.8297 57.3442 35.9778C57.4294 36.126 57.4479 36.3074 57.3997 36.5149C57.3738 36.626 57.3257 36.726 57.2553 36.8223C57.1849 36.9186 57.1071 36.9815 57.0182 37.0186L56.8516 36.8111C56.9997 36.7371 57.0886 36.6223 57.1257 36.4704C57.1516 36.3593 57.1405 36.263 57.096 36.1852C57.0516 36.1074 56.9701 36.0519 56.8516 36.026L56.7516 36.0037C56.8368 36.126 56.8627 36.2667 56.8219 36.4297C56.7812 36.6037 56.6775 36.7334 56.5108 36.8111C56.3442 36.8889 56.1405 36.9 55.8923 36.8445M56.0034 36.5149C56.1553 36.5482 56.2812 36.5482 56.3812 36.5037C56.4849 36.463 56.5479 36.3889 56.5701 36.2778C56.5997 36.1408 56.5701 36.026 56.4664 35.9334L55.8071 35.7778C55.6775 35.8149 55.5997 35.9 55.5664 36.0371C55.5368 36.1482 55.559 36.2445 55.6368 36.326C55.7108 36.4074 55.8331 36.4667 56.0034 36.5074M55.4182 36.8963C55.3997 36.9371 55.3812 36.9815 55.3701 37.0297C55.3257 37.1815 55.3553 37.3037 55.4553 37.3889L56.4701 37.6815L56.3738 38.0149L54.8923 37.5889L54.9849 37.2704L55.1516 37.3111C55.0479 37.1926 55.0145 37.063 55.0553 36.9223C55.0664 36.8815 55.0849 36.8445 55.1071 36.8111L55.4182 36.9037V36.8963ZM55.3368 38.0704C55.5294 38.1371 55.6849 38.2297 55.8071 38.3482C55.9294 38.4667 56.0071 38.6 56.0405 38.7482C56.0738 38.9074 56.0627 39.063 56.0071 39.2149C55.9553 39.3667 55.8664 39.4963 55.7405 39.5963C55.6145 39.6963 55.4701 39.7556 55.3071 39.7667C55.1405 39.7852 54.9627 39.7593 54.7738 39.6926L54.6627 39.6556C54.4738 39.5889 54.3145 39.4963 54.1923 39.3741C54.0738 39.263 53.996 39.1297 53.959 38.9704C53.9257 38.8186 53.9368 38.6667 53.9923 38.5037C54.0479 38.3445 54.1368 38.2186 54.2553 38.1223C54.3738 38.026 54.5182 37.9704 54.6849 37.9519C54.8516 37.9371 55.0331 37.9593 55.222 38.026L55.3294 38.063L55.3368 38.0704ZM55.1145 38.3741C54.896 38.2963 54.7182 38.2815 54.5738 38.3223C54.4294 38.363 54.3294 38.4593 54.2775 38.6111C54.2257 38.7593 54.2442 38.8926 54.3294 39.0186C54.4145 39.1408 54.5627 39.2408 54.7738 39.3186L54.8886 39.3593C55.1034 39.4334 55.2849 39.4519 55.4294 39.4074C55.5775 39.3667 55.6775 39.2704 55.7294 39.1223C55.7812 38.9741 55.7664 38.8371 55.6812 38.7149C55.596 38.5926 55.4442 38.4926 55.222 38.4149L55.1182 38.3778L55.1145 38.3741ZM55.0368 41.6C54.9442 41.8 54.8071 41.9297 54.6219 41.9963C54.4405 42.063 54.2442 42.0445 54.0368 41.9482L53.9997 41.9297C53.8664 41.8704 53.7553 41.7852 53.6627 41.6741C53.5775 41.5741 53.5294 41.4593 53.5108 41.3297C53.496 41.2 53.5145 41.0778 53.5701 40.9593C53.659 40.7704 53.7886 40.6519 53.959 40.6037C54.1294 40.5556 54.3257 40.5852 54.5479 40.6889L54.6738 40.7482L54.2479 41.6593C54.3664 41.7037 54.4775 41.7074 54.5738 41.6704C54.6738 41.6334 54.7442 41.563 54.7923 41.463C54.859 41.3186 54.8553 41.1741 54.7812 41.0297L55.0219 40.9371C55.0775 41.0334 55.1108 41.1371 55.1108 41.2519C55.1108 41.3667 55.0886 41.4815 55.0331 41.6M53.822 41.0815C53.7812 41.163 53.7775 41.2482 53.8145 41.3334C53.8516 41.4149 53.9182 41.4889 54.0182 41.5519L54.296 40.9556L54.2738 40.9445C54.1664 40.9037 54.0738 40.8926 53.996 40.9186C53.9182 40.9408 53.859 40.9963 53.8182 41.0852M54.0553 42.9445C54.096 42.8741 54.1071 42.8 54.0923 42.7186C54.0775 42.6445 54.0368 42.5889 53.9701 42.5482L54.1257 42.2593C54.2071 42.3074 54.2738 42.3778 54.3182 42.4667C54.3664 42.5556 54.3849 42.6556 54.3849 42.763C54.3849 42.8704 54.3553 42.9741 54.2997 43.0704C54.196 43.2593 54.0553 43.3778 53.8701 43.4223C53.6886 43.4667 53.4886 43.4297 53.2701 43.3149L53.2368 43.2963C53.0294 43.1852 52.896 43.0408 52.8294 42.863C52.7664 42.6852 52.7849 42.5037 52.8849 42.3112C52.9738 42.1482 53.0886 42.0445 53.2405 41.9926C53.3886 41.9408 53.5405 41.9556 53.696 42.0334L53.5405 42.3223C53.4664 42.2815 53.3886 42.2741 53.3071 42.3C53.2257 42.3223 53.1664 42.3741 53.1294 42.4482C53.0775 42.5482 53.0701 42.6445 53.1145 42.7334C53.1553 42.826 53.2516 42.9112 53.396 42.9889L53.4442 43.0149C53.5923 43.0926 53.7145 43.126 53.8182 43.1149C53.9182 43.1 53.996 43.0445 54.0516 42.9445M51.896 43.3074C51.8516 43.2815 51.822 43.2445 51.8071 43.1963C51.7923 43.1482 51.8071 43.1 51.8368 43.0445C51.8701 42.9926 51.9071 42.9593 51.9553 42.9482C52.0071 42.9371 52.0516 42.9482 52.096 42.9741C52.1405 43 52.1701 43.0371 52.1812 43.0852C52.1923 43.1334 52.1812 43.1815 52.1516 43.2371C52.1182 43.2926 52.0812 43.3223 52.0331 43.3334C51.9849 43.3445 51.9368 43.3371 51.896 43.3074ZM53.7479 43.9889L53.5701 44.2852L52.2479 43.4926L52.4257 43.1963L53.7479 43.9889ZM52.6812 44.8741L51.9405 43.9963L52.1368 43.6963L53.1331 44.9889L52.9701 45.2408L51.3849 44.8445L51.5812 44.5445L52.6849 44.8741H52.6812ZM51.5849 45.1C51.5516 45.1334 51.5182 45.1704 51.4923 45.2074C51.3997 45.3371 51.3849 45.4593 51.4516 45.5741L52.3034 46.1926L52.0997 46.4741L50.8516 45.5667L51.0479 45.3L51.1923 45.3963C51.1331 45.2482 51.1479 45.1149 51.2331 44.9963C51.2553 44.963 51.2849 44.9334 51.322 44.9074L51.5849 45.1ZM51.5368 47.2408C51.3997 47.4112 51.2331 47.5074 51.0405 47.526C50.8479 47.5445 50.6627 47.4815 50.4812 47.3371L50.4479 47.3112C50.3331 47.2223 50.2442 47.1112 50.1849 46.9815C50.1294 46.863 50.1071 46.7408 50.122 46.6074C50.1368 46.4815 50.1849 46.3667 50.2664 46.2667C50.3997 46.1037 50.5516 46.0186 50.7294 46.0149C50.9071 46.0112 51.0886 46.0852 51.2812 46.2371L51.3886 46.326L50.7553 47.1111C50.8627 47.1815 50.9664 47.2149 51.0701 47.2C51.1738 47.1889 51.2627 47.1408 51.3331 47.0519C51.4331 46.9297 51.4627 46.7889 51.4257 46.6297L51.6812 46.5963C51.7145 46.7037 51.7183 46.8111 51.6923 46.9223C51.6664 47.0408 51.6108 47.1482 51.5331 47.2408M50.4849 46.4445C50.4257 46.5149 50.4034 46.5963 50.4182 46.6852C50.4331 46.7741 50.4812 46.8593 50.5664 46.9482L50.9812 46.4334L50.9627 46.4186C50.8664 46.3519 50.7812 46.3223 50.6997 46.326C50.6182 46.3297 50.5479 46.3704 50.4886 46.4445M50.2182 47.9371C50.1516 47.8741 50.0775 47.8519 49.996 47.8667C49.9182 47.8815 49.8034 47.9334 49.6516 48.0223C49.5034 48.1111 49.3701 48.1704 49.259 48.2037C49.0442 48.263 48.8664 48.2297 48.7257 48.1C48.6034 47.9852 48.5479 47.8445 48.559 47.6704C48.5701 47.4963 48.6516 47.3297 48.7997 47.1704C48.896 47.063 49.0034 46.9889 49.1182 46.9408C49.2331 46.8926 49.3479 46.8778 49.4664 46.9C49.5812 46.9186 49.6849 46.9667 49.7738 47.0482L49.5331 47.3112C49.4553 47.2371 49.3701 47.2074 49.2775 47.2149C49.1849 47.2223 49.0997 47.2741 49.0145 47.3667C48.9368 47.4519 48.8923 47.5371 48.8849 47.6186C48.8775 47.7 48.9071 47.7704 48.9738 47.8334C49.0294 47.8852 49.0997 47.9 49.1849 47.8852C49.2701 47.8667 49.3849 47.8149 49.5294 47.7297C49.6738 47.6445 49.8034 47.5852 49.9145 47.5556C50.0257 47.526 50.1257 47.5186 50.2145 47.5371C50.3034 47.5556 50.3886 47.6037 50.4664 47.6741C50.5923 47.7926 50.6516 47.9334 50.6368 48.1C50.6219 48.2667 50.5405 48.4334 50.3849 48.6C50.2886 48.7074 50.1738 48.7889 50.0442 48.8482C49.9182 48.9037 49.796 48.9223 49.6775 48.9111C49.5516 48.8963 49.4442 48.8445 49.3553 48.7556L49.5997 48.4889C49.6886 48.5704 49.7812 48.6 49.8812 48.5889C49.9812 48.5741 50.0812 48.5149 50.1775 48.4074C50.2627 48.3149 50.3071 48.2297 50.3108 48.1482C50.3182 48.0667 50.2886 47.9963 50.2257 47.9408M48.6886 50.7741L48.5812 50.8704L46.9442 49.0371L47.0516 48.9408L48.6923 50.7741H48.6886ZM46.4516 51.6186C46.4034 51.5482 46.3331 51.5149 46.2479 51.5149C46.1627 51.5149 46.0553 51.5408 45.9294 51.6C45.8034 51.6593 45.696 51.6926 45.6145 51.7074C45.5405 51.7223 45.4701 51.7186 45.396 51.6963C45.3294 51.6704 45.2775 51.6297 45.2368 51.5704C45.1664 51.4741 45.1442 51.363 45.1812 51.2371C45.2145 51.1148 45.296 51.0037 45.4257 50.9112C45.5627 50.8074 45.6997 50.7593 45.8331 50.7667C45.9664 50.7741 46.0738 50.8334 46.1553 50.9408L46.0182 51.0408C45.9627 50.963 45.8886 50.926 45.7923 50.926C45.696 50.926 45.6034 50.9556 45.5108 51.0223C45.422 51.0889 45.3627 51.163 45.3368 51.2445C45.3071 51.3223 45.3182 51.3963 45.3701 51.463C45.4108 51.526 45.4701 51.5556 45.5442 51.5556C45.6145 51.5556 45.722 51.526 45.8627 51.4667C46.0034 51.4074 46.1145 51.3704 46.1997 51.3593C46.2849 51.3482 46.3553 51.3519 46.4182 51.3778C46.4812 51.4037 46.5368 51.4445 46.5812 51.5112C46.659 51.6149 46.6775 51.7297 46.6405 51.8556C46.6034 51.9815 46.5145 52.0926 46.3775 52.1926C46.2331 52.3 46.0886 52.3482 45.9479 52.3482C45.8071 52.3445 45.696 52.2889 45.6182 52.1815L45.7553 52.0815C45.8182 52.1593 45.896 52.1963 45.996 52.1963C46.0923 52.1963 46.1886 52.1556 46.2923 52.0815C46.3886 52.0111 46.4516 51.9334 46.4775 51.8482C46.5034 51.763 46.496 51.6889 46.4479 51.6223M43.8368 52.0334L43.9849 52.2519C43.9812 52.1482 43.9997 52.0445 44.0479 51.9519C44.0923 51.863 44.159 51.7889 44.2479 51.7334C44.3886 51.6445 44.5145 51.6149 44.6331 51.6482C44.7516 51.6815 44.8627 51.7778 44.9627 51.9334L45.5145 52.7815L45.3738 52.8741L44.822 52.026C44.7479 51.9111 44.6664 51.8408 44.5812 51.8148C44.496 51.7889 44.3997 51.8149 44.296 51.8815C44.2071 51.9371 44.1479 52.0186 44.1145 52.1186C44.0812 52.2186 44.0812 52.326 44.1108 52.4408L44.6849 53.326L44.5442 53.4186L43.7034 52.126L43.8405 52.0371L43.8368 52.0334ZM42.5849 53.626C42.5145 53.5037 42.4738 53.3741 42.4627 53.2334C42.4553 53.1037 42.4812 52.9815 42.5368 52.8741C42.596 52.763 42.6849 52.6778 42.7997 52.6111C42.9775 52.5111 43.159 52.4889 43.3405 52.5519C43.522 52.6149 43.6701 52.7482 43.7886 52.9556L43.8071 52.9852C43.8812 53.1149 43.922 53.2445 43.9294 53.3778C43.9405 53.5037 43.9145 53.626 43.8553 53.7371C43.7923 53.8482 43.7034 53.9371 43.5923 53.9963C43.4145 54.0963 43.2331 54.1149 43.0516 54.0519C42.8701 53.9889 42.722 53.8556 42.6034 53.6482L42.5886 53.6186L42.5849 53.626ZM42.759 53.5815C42.8479 53.7408 42.9664 53.8519 43.1071 53.9074C43.2516 53.9667 43.3886 53.9556 43.5219 53.8778C43.6553 53.8037 43.7368 53.6889 43.759 53.5408C43.7849 53.3926 43.7479 53.2334 43.6553 53.063L43.6405 53.0334C43.5812 52.9297 43.5108 52.8482 43.4257 52.7852C43.3442 52.7223 43.2553 52.6889 43.1553 52.6778C43.0553 52.6704 42.9664 52.6926 42.8812 52.7408C42.7442 52.8149 42.6664 52.926 42.6442 53.0778C42.6182 53.2297 42.6553 53.3889 42.7479 53.5556L42.7627 53.5852L42.759 53.5815ZM41.5108 52.826C41.496 52.7963 41.4923 52.7704 41.5034 52.7371C41.5145 52.7037 41.5331 52.6815 41.5664 52.6667C41.596 52.6519 41.6257 52.6482 41.659 52.6593C41.6886 52.6704 41.7108 52.6889 41.7257 52.7186C41.7405 52.7482 41.7442 52.7741 41.7331 52.8037C41.7219 52.8371 41.7034 52.8593 41.6701 52.8704C41.6405 52.8889 41.6108 52.8889 41.5775 52.8815C41.5479 52.8704 41.5257 52.8519 41.5108 52.826ZM42.5923 54.5074L42.4405 54.5852L41.7405 53.2111L41.8923 53.1334L42.5923 54.5074ZM40.959 53.1519L41.1257 53.5074L41.4145 53.3704L41.4738 53.4963L41.1849 53.6334L41.622 54.563C41.659 54.6408 41.6997 54.6926 41.7442 54.7149C41.7886 54.7408 41.8442 54.7371 41.9108 54.7074C41.9368 54.6963 41.9775 54.6704 42.0294 54.6371L42.096 54.7593C42.0516 54.8 41.9997 54.8334 41.9405 54.8593C41.8368 54.9074 41.7442 54.9149 41.6664 54.8741C41.5886 54.8334 41.522 54.7556 41.4664 54.6371L41.0294 53.7074L40.7738 53.8297L40.7145 53.7037L40.9701 53.5815L40.8034 53.2223L40.959 53.1482V53.1519ZM40.9479 55.2852C40.9145 55.2482 40.8775 55.1852 40.8368 55.1C40.8108 55.1963 40.7627 55.2815 40.696 55.3556C40.6257 55.4297 40.5442 55.4889 40.4479 55.526C40.3108 55.5815 40.1849 55.5889 40.0664 55.5482C39.9479 55.5074 39.8664 55.4297 39.8182 55.3111C39.7553 55.1704 39.7701 55.0371 39.8553 54.9111C39.9368 54.7815 40.0812 54.6778 40.2886 54.5926L40.5738 54.4741L40.5071 54.3111C40.4664 54.2111 40.3997 54.1408 40.3145 54.1112C40.2257 54.0778 40.1257 54.0852 40.0034 54.1371C39.8923 54.1815 39.8145 54.2482 39.7664 54.3334C39.7182 54.4186 39.7108 54.5 39.7442 54.5815L39.5849 54.6445C39.5368 54.5297 39.5516 54.4112 39.622 54.2852C39.6923 54.1593 39.8071 54.063 39.959 54C40.1182 53.9334 40.259 53.9223 40.3849 53.963C40.5108 54.0037 40.6034 54.0963 40.6627 54.2371L40.9405 54.9111C40.996 55.0482 41.0553 55.1445 41.1108 55.2037L41.1182 55.2186L40.9479 55.2889V55.2852ZM40.4071 55.3741C40.5108 55.3334 40.5923 55.2704 40.659 55.1815C40.722 55.0963 40.7516 55.0037 40.7553 54.9037L40.6257 54.5889L40.3442 54.7037C40.1886 54.7704 40.0775 54.8482 40.0108 54.9408C39.9442 55.0334 39.9331 55.1297 39.9738 55.226C40.0034 55.3074 40.0627 55.3593 40.1442 55.3889C40.2257 55.4186 40.3145 55.4111 40.4071 55.3741ZM38.6997 55.9852L39.6442 55.6556L39.6923 55.7926L38.5479 56.1926L38.5071 56.0741L38.9738 54.5704L38.1182 54.8667L38.0701 54.726L39.1294 54.3593L39.1701 54.4815L38.6997 55.9889V55.9852ZM37.3849 54.4667C37.3738 54.4371 37.3775 54.4074 37.3923 54.3778C37.4071 54.3519 37.4294 54.3334 37.4627 54.3223C37.496 54.3111 37.5294 54.3149 37.5553 54.3297C37.5812 54.3445 37.5997 54.3667 37.6108 54.4C37.6182 54.4297 37.6182 54.4593 37.6034 54.4852C37.5886 54.5149 37.5627 54.5334 37.5294 54.5408C37.496 54.5519 37.4627 54.5482 37.4368 54.5334C37.4108 54.5186 37.3923 54.4963 37.3849 54.463V54.4667ZM38.1516 56.3074L37.9886 56.3556L37.5405 54.8815L37.7034 54.8334L38.1516 56.3074ZM36.1405 55.263L36.2108 55.5149C36.2442 55.4074 36.296 55.3223 36.3664 55.2519C36.4405 55.1815 36.5257 55.1334 36.6257 55.1074C36.7849 55.0667 36.9182 55.0815 37.0182 55.1519C37.1182 55.2223 37.1923 55.3482 37.2405 55.526L37.4923 56.5037L37.3294 56.5445L37.0775 55.563C37.0405 55.4297 36.9886 55.3371 36.9182 55.2852C36.8442 55.2334 36.7479 55.226 36.6257 55.2556C36.522 55.2815 36.4405 55.3371 36.3775 55.4223C36.3145 55.5074 36.2812 55.6074 36.2701 55.726L36.5331 56.7482L36.3701 56.7889L35.9886 55.2963L36.1479 55.2556L36.1405 55.263ZM35.7145 56.9371C35.6886 56.8926 35.6627 56.826 35.6405 56.7334C35.596 56.8223 35.5331 56.8926 35.4516 56.9519C35.3664 57.0112 35.2738 57.0519 35.1738 57.0704C35.0294 57.1 34.9034 57.0815 34.796 57.0149C34.6886 56.9519 34.622 56.8556 34.6034 56.7334C34.5738 56.5852 34.6145 56.4593 34.722 56.3482C34.8294 56.2371 34.9923 56.163 35.2108 56.1223L35.5145 56.063L35.4812 55.8889C35.459 55.7815 35.4108 55.7 35.3331 55.6519C35.2553 55.6037 35.1516 55.5889 35.0257 55.6149C34.9071 55.6371 34.8182 55.6852 34.7516 55.7593C34.6849 55.8334 34.6627 55.9149 34.6775 55.9963L34.5108 56.026C34.4886 55.9074 34.5257 55.7889 34.6182 55.6815C34.7145 55.5704 34.8405 55.5 35.0071 55.4704C35.1775 55.4371 35.3182 55.4556 35.4294 55.5223C35.5442 55.5889 35.6145 55.6963 35.6479 55.8482L35.7849 56.563C35.8145 56.7111 35.8516 56.8149 35.896 56.8815V56.9L35.7182 56.9334L35.7145 56.9371ZM35.1627 56.9186C35.2738 56.8963 35.3701 56.8519 35.4479 56.7778C35.5257 56.7074 35.5738 56.6223 35.5997 56.5223L35.5368 56.1889L35.2368 56.2445C35.0701 56.2778 34.9442 56.3334 34.8627 56.4111C34.7812 56.4889 34.7479 56.5778 34.7664 56.6815C34.7812 56.7667 34.8257 56.8334 34.9034 56.8741C34.9775 56.9186 35.0627 56.9297 35.1664 56.9112M32.9034 56.5889C32.8738 56.3482 32.9034 56.1519 32.9886 56C33.0775 55.8445 33.2108 55.7593 33.3923 55.7334C33.5997 55.7074 33.7701 55.7704 33.8997 55.9223L33.8775 55.7L34.0368 55.6778L34.2294 57.1741C34.2553 57.3704 34.2182 57.5334 34.1257 57.663C34.0294 57.7926 33.8886 57.8704 33.6997 57.8926C33.5923 57.9074 33.4886 57.8926 33.3849 57.8593C33.2886 57.826 33.2034 57.7741 33.1331 57.7L33.2145 57.5852C33.3516 57.7186 33.5034 57.7704 33.6701 57.7519C33.8108 57.7334 33.9182 57.6778 33.9849 57.5852C34.0553 57.4926 34.0775 57.3704 34.0627 57.2223L34.0368 57.0297C33.9479 57.1926 33.7997 57.2889 33.5923 57.3186C33.4145 57.3482 33.2627 57.2926 33.1368 57.163C33.0108 57.0371 32.9331 56.8519 32.9034 56.6112V56.5889ZM33.0812 56.5963C33.1071 56.7926 33.1664 56.9408 33.259 57.0408C33.3516 57.1445 33.4701 57.1852 33.6108 57.1667C33.8182 57.1408 33.9553 57.026 34.0182 56.8297L33.9257 56.1186C33.8812 56.0297 33.8108 55.963 33.7257 55.9149C33.6368 55.8704 33.5442 55.8593 33.4479 55.8741C33.3071 55.8926 33.2034 55.963 33.1368 56.0852C33.0701 56.2074 33.0553 56.3778 33.0812 56.5926M32.6331 55.9963C32.596 55.9926 32.5553 55.9926 32.5182 55.9963C32.4182 56 32.3294 56.0371 32.2553 56.1074C32.1849 56.1741 32.1405 56.263 32.1182 56.3778L32.1997 57.4334L32.0294 57.4482L31.9071 55.9112L32.0738 55.9L32.096 56.1445C32.1701 55.9556 32.3071 55.8519 32.5071 55.8371C32.5479 55.8334 32.5849 55.8371 32.622 55.8482L32.6294 56.0037L32.6331 55.9963ZM31.5368 56.5593C31.5405 56.7482 31.5108 56.9186 31.4479 57.063C31.3849 57.2112 31.2923 57.3223 31.1738 57.4037C31.0442 57.4889 30.9034 57.5297 30.7516 57.5297C30.5108 57.5334 30.3108 57.4519 30.159 57.2815C30.0071 57.1112 29.9257 56.8815 29.9182 56.5852V56.3704C29.9071 56.1815 29.9368 56.0149 30.0034 55.8667C30.0664 55.7186 30.159 55.6037 30.2812 55.526C30.4071 55.4408 30.5479 55.4 30.6997 55.4C30.859 55.3963 30.9997 55.4297 31.1257 55.5037C31.2479 55.5778 31.3479 55.6852 31.4145 55.8223C31.4849 55.963 31.522 56.1223 31.5294 56.3074L31.5368 56.5556V56.5593ZM31.3553 56.3371C31.3479 56.0889 31.2886 55.8926 31.1738 55.7556C31.059 55.6186 30.8997 55.5482 30.7034 55.5556C30.5108 55.5593 30.359 55.6334 30.2479 55.7778C30.1368 55.9223 30.0849 56.1223 30.0886 56.3778V56.5963C30.0997 56.8408 30.1627 57.0371 30.2775 57.1778C30.396 57.3186 30.5516 57.3852 30.7479 57.3815C30.9442 57.3778 31.0997 57.3 31.2071 57.1556C31.3145 57.0112 31.3664 56.8112 31.359 56.5593V56.3408L31.3553 56.3371ZM28.2442 57.4778C27.9664 57.463 27.7738 57.326 27.6664 57.0704C27.6145 56.9445 27.5923 56.8111 27.6034 56.6778V56.6149C27.6182 56.4667 27.6553 56.3371 27.722 56.2223C27.7886 56.1074 27.8738 56.0186 27.9812 55.9593C28.0886 55.9 28.1997 55.8704 28.322 55.8815C28.5071 55.8963 28.6516 55.9704 28.7516 56.1037C28.8516 56.2371 28.896 56.4149 28.8812 56.6371L28.8738 56.7334L27.7775 56.6593V56.6926C27.7627 56.8667 27.8034 57.0149 27.896 57.1371C27.9886 57.2593 28.1108 57.326 28.2627 57.3371C28.3479 57.3445 28.4294 57.3371 28.5071 57.3037C28.5775 57.2741 28.6479 57.226 28.7071 57.1556L28.8071 57.2445C28.6701 57.4186 28.4812 57.4963 28.2442 57.4778ZM28.3145 56.026C28.1849 56.0149 28.0738 56.0556 27.9812 56.1445C27.8886 56.2334 27.8257 56.3556 27.796 56.5112L28.7182 56.5741V56.5556C28.7257 56.4074 28.6923 56.2852 28.6182 56.1852C28.5442 56.0815 28.4442 56.0297 28.3145 56.026ZM26.6664 57.1815C26.7849 57.1963 26.8886 57.1778 26.9738 57.1186C27.0627 57.063 27.1145 56.9815 27.1368 56.8778L27.2997 56.9C27.2849 56.9926 27.2442 57.0741 27.1812 57.1445C27.1145 57.2148 27.0368 57.2667 26.9442 57.2963C26.8479 57.3297 26.7516 57.3371 26.6516 57.326C26.4516 57.3 26.2997 57.2112 26.1997 57.0556C26.0997 56.9 26.0664 56.7074 26.096 56.4704L26.1034 56.4186C26.1182 56.2778 26.1627 56.1482 26.2331 56.0297C26.2997 55.9223 26.3886 55.8408 26.4923 55.7889C26.5997 55.7371 26.7182 55.7223 26.8516 55.7371C27.0182 55.7593 27.1516 55.826 27.2479 55.9408C27.3442 56.0556 27.3849 56.1926 27.3738 56.3556L27.2108 56.3334C27.2182 56.2149 27.1886 56.1112 27.1182 56.026C27.0479 55.9408 26.9553 55.8926 26.8368 55.8778C26.6849 55.8593 26.559 55.9 26.459 55.9963C26.359 56.0963 26.2997 56.2445 26.2738 56.4445L26.2664 56.4926C26.2405 56.6889 26.2664 56.8445 26.3368 56.9667C26.4071 57.0852 26.5182 57.1556 26.6738 57.1741M25.5738 57.1408L25.4034 57.1111L25.659 55.5926L25.8294 55.6223L25.5738 57.1408ZM25.7071 55.1482C25.7182 55.0667 25.7627 55.0371 25.8405 55.0556C25.8738 55.0593 25.8997 55.0741 25.9182 55.1037C25.9368 55.1297 25.9442 55.1593 25.9368 55.1889C25.9331 55.2186 25.9182 55.2445 25.8923 55.263C25.8664 55.2815 25.8331 55.2889 25.8034 55.2815C25.7701 55.2778 25.7442 55.263 25.7257 55.2371C25.7071 55.2111 25.7034 55.1815 25.7071 55.1519V55.1482ZM24.4812 56.6963L25.2071 55.5149L25.3775 55.5519L24.496 56.9408L24.359 56.9112L24.1108 55.2852L24.2812 55.3223L24.4775 56.7L24.4812 56.6963ZM23.9627 55.3926C23.9257 55.3778 23.8923 55.363 23.8553 55.3556C23.7516 55.3297 23.659 55.3334 23.5701 55.3741C23.4849 55.4111 23.4108 55.4852 23.3516 55.5852L23.0849 56.6112L22.922 56.5704L23.3108 55.0778L23.4701 55.1186L23.4108 55.3556C23.5442 55.2 23.7071 55.1482 23.8997 55.2C23.9442 55.2111 23.9812 55.226 24.0034 55.2445L23.959 55.3926H23.9627ZM21.9812 56.3223C21.7145 56.2445 21.559 56.0667 21.5145 55.7926C21.4923 55.6556 21.5034 55.526 21.5442 55.3963L21.5627 55.3371C21.6071 55.1963 21.6738 55.0778 21.7627 54.9815C21.8516 54.8852 21.9553 54.8186 22.0738 54.7852C22.1923 54.7519 22.3071 54.7519 22.422 54.7852C22.5997 54.8408 22.722 54.9445 22.7886 55.1C22.8553 55.2556 22.8553 55.4371 22.7886 55.6482L22.759 55.7408L21.7108 55.4149L21.6997 55.4445C21.6479 55.6111 21.6516 55.7667 21.7145 55.9074C21.7738 56.0482 21.8775 56.1408 22.022 56.1852C22.1108 56.2111 22.1923 56.2223 22.2664 56.2112C22.3442 56.2 22.4182 56.1667 22.496 56.1148L22.5738 56.226C22.3997 56.363 22.1997 56.3926 21.9738 56.3223M22.3812 54.9223C22.259 54.8815 22.1405 54.8963 22.0294 54.9593C21.9182 55.0223 21.8294 55.126 21.7627 55.2741L22.6442 55.5482V55.5297C22.6886 55.3852 22.6849 55.2593 22.6368 55.1445C22.5886 55.026 22.5034 54.9519 22.3812 54.9186M21.0405 55.4445C21.0812 55.3371 21.0775 55.2371 21.0257 55.1482C20.9738 55.0556 20.859 54.9445 20.6812 54.8111C20.5034 54.6778 20.3812 54.5593 20.3108 54.4593C20.2145 54.3148 20.196 54.1667 20.2553 54.0149C20.3108 53.8667 20.4182 53.7704 20.5775 53.7223C20.7368 53.6778 20.9071 53.6889 21.0997 53.7593C21.2294 53.8074 21.3331 53.8778 21.4182 53.9667C21.4997 54.0556 21.5553 54.1556 21.5738 54.263C21.596 54.3741 21.5849 54.4815 21.5442 54.5926L21.3775 54.5297C21.4294 54.3963 21.422 54.2741 21.3627 54.1593C21.3034 54.0445 21.196 53.9556 21.0442 53.9C20.896 53.8445 20.7664 53.8297 20.6516 53.863C20.5368 53.8926 20.4627 53.963 20.422 54.0704C20.3812 54.1704 20.3886 54.2667 20.4479 54.3556C20.5034 54.4482 20.6071 54.5519 20.7627 54.663C20.9182 54.7778 21.0331 54.8778 21.1034 54.963C21.1738 55.0482 21.2182 55.1334 21.2368 55.2223C21.2553 55.3186 21.2442 55.4111 21.2071 55.5C21.1479 55.6519 21.0405 55.7519 20.8849 55.7963C20.7294 55.8408 20.5479 55.826 20.3516 55.7519C20.222 55.7037 20.1034 55.6297 20.0034 55.5371C19.9071 55.4445 19.8479 55.3445 19.822 55.2334C19.796 55.1186 19.8034 55.0074 19.8479 54.8963L20.0108 54.9593C19.959 55.0963 19.9701 55.2223 20.0405 55.3408C20.1108 55.4593 20.2331 55.5482 20.4034 55.6149C20.5553 55.6741 20.6886 55.6852 20.8034 55.6519C20.922 55.626 20.9997 55.5519 21.0405 55.4408M19.3331 53.7963C19.2997 53.7741 19.2664 53.7556 19.2331 53.7371C19.1442 53.6926 19.0479 53.6778 18.9516 53.7C18.859 53.7223 18.7775 53.7778 18.6997 53.8667L18.2442 54.8223L18.0923 54.7482L18.7553 53.3556L18.9071 53.426L18.8034 53.6482C18.9627 53.5223 19.1331 53.5 19.3145 53.5889C19.3553 53.6112 19.3886 53.6297 19.4071 53.6556L19.3368 53.7926L19.3331 53.7963ZM16.8738 53.2186C16.9442 53.0889 17.0331 52.9852 17.1405 52.9074C17.2479 52.8297 17.3627 52.7889 17.4849 52.7778C17.6071 52.7704 17.7294 52.7963 17.8479 52.8593C18.0294 52.9556 18.1405 53.1 18.1849 53.2852C18.2294 53.4741 18.196 53.6704 18.0812 53.8778L18.0627 53.9074C17.996 54.0334 17.9071 54.1371 17.796 54.2223C17.6886 54.3 17.5738 54.3408 17.4516 54.3482C17.322 54.3556 17.2034 54.326 17.0923 54.263C16.9108 54.1667 16.7997 54.0223 16.7553 53.8371C16.7108 53.6482 16.7442 53.4519 16.859 53.2408L16.8738 53.2111V53.2186ZM16.9997 53.3408C16.9108 53.5037 16.8812 53.6593 16.9108 53.8074C16.9405 53.9556 17.022 54.0667 17.159 54.1408C17.296 54.2149 17.4331 54.2223 17.5738 54.163C17.7145 54.1037 17.8294 53.9889 17.922 53.8186L17.9368 53.7889C17.9923 53.6852 18.0257 53.5815 18.0331 53.4741C18.0405 53.3667 18.022 53.2704 17.9775 53.1852C17.9331 53.0963 17.8664 53.0297 17.7775 52.9852C17.6442 52.9074 17.5071 52.9037 17.3664 52.9667C17.2257 53.026 17.1108 53.1408 17.0182 53.3111L17.0034 53.3371L16.9997 53.3408ZM15.8034 53.5L16.5294 52.3L16.3108 52.1667L16.3812 52.0482L16.5997 52.1815L16.696 52.0223C16.7775 51.8852 16.8738 51.8037 16.9886 51.7741C17.0997 51.7445 17.2182 51.7667 17.3405 51.8408C17.396 51.8741 17.4442 51.9111 17.4812 51.9556L17.396 52.0704C17.359 52.0334 17.3182 52 17.2738 51.9741C17.1923 51.926 17.1145 51.9111 17.0405 51.9371C16.9664 51.9593 16.8997 52.0186 16.8442 52.1111L16.7442 52.2741L17.059 52.463L16.9886 52.5815L16.6738 52.3926L15.9479 53.5926L15.7997 53.5037L15.8034 53.5ZM15.0627 52.263C14.9145 52.426 14.7553 52.5149 14.5812 52.5334C14.4071 52.5482 14.2294 52.4926 14.0516 52.363C13.9294 52.2778 13.8442 52.1667 13.7886 52.0297C13.7368 51.8889 13.7257 51.7482 13.759 51.6037C13.7886 51.4519 13.8553 51.3 13.9627 51.1556L14.122 50.9371C14.2294 50.7889 14.3516 50.6741 14.4886 50.5963C14.6182 50.5186 14.759 50.4852 14.9071 50.4926C15.0516 50.5 15.1849 50.5519 15.3145 50.6445C15.496 50.7741 15.6034 50.926 15.6368 51.0963C15.6701 51.2704 15.6368 51.4482 15.5257 51.6297L15.3812 51.526C15.5516 51.2149 15.4997 50.9593 15.2257 50.763C15.0738 50.6519 14.9108 50.6223 14.7368 50.6704C14.5627 50.7186 14.4034 50.8445 14.259 51.0445L14.1108 51.2519C13.9701 51.4445 13.9034 51.6334 13.9071 51.8111C13.9108 51.9926 13.9886 52.1334 14.1405 52.2445C14.2886 52.3519 14.4257 52.3963 14.5553 52.3815C14.6812 52.3667 14.8034 52.2926 14.9257 52.163L15.0701 52.2667L15.0627 52.263ZM13.6627 50.8963C13.5405 51.0445 13.4071 51.1482 13.2627 51.2186C13.1182 51.2889 12.9738 51.3112 12.8331 51.2926C12.6812 51.2704 12.5479 51.2112 12.4331 51.1074C12.2479 50.9519 12.1553 50.7593 12.1516 50.5297C12.1516 50.3 12.2442 50.0741 12.4331 49.8482L12.5701 49.6852C12.6923 49.5408 12.8257 49.4334 12.9701 49.3667C13.1145 49.3 13.259 49.2741 13.4034 49.2926C13.5479 49.3111 13.6812 49.3741 13.8034 49.4741C13.9257 49.5778 14.0071 49.6963 14.0516 49.8334C14.096 49.9704 14.096 50.1149 14.059 50.2667C14.0182 50.4149 13.9405 50.563 13.8257 50.7074L13.6664 50.8963H13.6627ZM13.6701 50.6111C13.8294 50.4223 13.9145 50.2334 13.9182 50.0519C13.922 49.8704 13.8479 49.7186 13.6997 49.5926C13.5516 49.4704 13.3886 49.4223 13.2108 49.4593C13.0331 49.4963 12.8627 49.6074 12.696 49.8037L12.5553 49.9704C12.396 50.1593 12.3145 50.3445 12.3108 50.5297C12.3071 50.7148 12.3775 50.8667 12.5257 50.9926C12.6775 51.1186 12.8405 51.1667 13.0182 51.1297C13.196 51.0926 13.3664 50.9778 13.5294 50.7815L13.6701 50.6149V50.6111ZM11.7701 49.8111C11.8516 49.7297 11.8849 49.6334 11.8738 49.5297C11.8627 49.426 11.7997 49.2778 11.6886 49.0852C11.5775 48.8926 11.5071 48.7371 11.4886 48.6149C11.459 48.4445 11.4997 48.3 11.6108 48.1852C11.722 48.0704 11.859 48.0223 12.022 48.0445C12.1849 48.063 12.3405 48.1445 12.4849 48.2852C12.5849 48.3815 12.6553 48.4852 12.696 48.6C12.7368 48.7149 12.7479 48.826 12.722 48.9371C12.6997 49.0482 12.6479 49.1445 12.5664 49.226L12.4405 49.1037C12.5405 49 12.5849 48.8852 12.5738 48.7556C12.5627 48.626 12.4997 48.5037 12.3849 48.3926C12.2701 48.2815 12.1553 48.2186 12.0368 48.2037C11.922 48.1852 11.822 48.2186 11.7405 48.3037C11.6627 48.3815 11.6331 48.4704 11.6516 48.5778C11.6664 48.6852 11.722 48.8223 11.822 48.9852C11.9182 49.1519 11.9849 49.2889 12.0145 49.3926C12.0442 49.5 12.0516 49.5963 12.0331 49.6852C12.0108 49.7815 11.9664 49.863 11.896 49.9297C11.7849 50.0519 11.6442 50.1 11.4812 50.0741C11.3182 50.0556 11.159 49.9704 11.0071 49.8223C10.9071 49.726 10.8257 49.6149 10.7738 49.4852C10.722 49.363 10.7071 49.2445 10.7257 49.1334C10.7479 49.0223 10.7997 48.9223 10.8812 48.8334L11.0071 48.9556C10.9071 49.0593 10.8627 49.1815 10.8849 49.3186C10.9034 49.4556 10.9812 49.5852 11.1108 49.7112C11.2257 49.8223 11.3442 49.8889 11.4627 49.9037C11.5812 49.9223 11.6849 49.8852 11.7664 49.8037" fill="#111111"/>
<path fill-rule="evenodd" clip-rule="evenodd" d="M55.9257 22.0964C55.8664 22.1112 55.8257 22.1483 55.8108 22.2112C55.7923 22.2705 55.7886 22.3594 55.7997 22.4779C55.8108 22.5964 55.8071 22.7001 55.7923 22.789C55.7627 22.9779 55.6701 23.0964 55.5182 23.1409C55.3886 23.1779 55.2664 23.1557 55.1516 23.0742C55.0331 22.9927 54.9516 22.8705 54.8997 22.7038C54.8479 22.5261 54.8479 22.3705 54.9034 22.2372C54.959 22.1038 55.0553 22.0149 55.196 21.9742L55.296 22.3075C55.2331 22.3261 55.1849 22.3631 55.159 22.4261C55.1294 22.4853 55.1294 22.5557 55.1516 22.6335C55.1738 22.7075 55.2071 22.7594 55.2553 22.7964C55.3034 22.8335 55.3553 22.8446 55.4108 22.8261C55.4627 22.8112 55.496 22.7779 55.5108 22.7261C55.5257 22.6742 55.5294 22.5779 55.5182 22.4409C55.5071 22.3001 55.5108 22.189 55.5294 22.1038C55.5442 22.0261 55.5738 21.9557 55.6219 21.8964C55.6738 21.8409 55.7331 21.8001 55.8071 21.7816C55.9405 21.7409 56.0664 21.7631 56.1775 21.852C56.2923 21.9372 56.3775 22.0705 56.4294 22.2483C56.4664 22.3705 56.4738 22.4853 56.459 22.5927C56.4479 22.6964 56.4071 22.7853 56.3442 22.8668C56.2812 22.9409 56.2071 22.9927 56.1219 23.0186L56.0257 22.6964C56.1034 22.6668 56.1553 22.6224 56.1812 22.552C56.2071 22.4853 56.2071 22.4075 56.1812 22.3149C56.1553 22.2261 56.1182 22.1668 56.0738 22.1298C56.0294 22.0927 55.9775 22.0816 55.922 22.1001M55.396 24.4927L55.5664 24.4446C55.4071 24.3668 55.3034 24.2335 55.2627 24.0557C55.1886 23.7409 55.3331 23.5409 55.6886 23.452L56.6812 23.2224L56.759 23.5594L55.7849 23.7853C55.6886 23.8075 55.6257 23.8446 55.5886 23.8964C55.5516 23.9483 55.5442 24.0224 55.5664 24.1149C55.596 24.252 55.6812 24.3372 55.822 24.3742L56.8923 24.1261L56.9701 24.4631L55.4701 24.8112L55.396 24.4927ZM56.5071 26.3705C56.359 26.3964 56.2182 26.389 56.0886 26.3483C55.9627 26.3112 55.859 26.2446 55.7701 26.1446C55.6849 26.0409 55.6331 25.9261 55.6108 25.7927C55.5775 25.589 55.6145 25.4112 55.7257 25.2594C55.8368 25.1112 55.9997 25.0112 56.2182 24.9631L56.2997 24.9483C56.4405 24.9224 56.5775 24.9298 56.7145 24.9668C56.8405 25.0038 56.9479 25.0705 57.0294 25.1668C57.1108 25.2631 57.1664 25.3816 57.1886 25.5224C57.2257 25.7372 57.1812 25.9186 57.059 26.0742C56.9368 26.2261 56.759 26.3224 56.5182 26.3631H56.4997L56.5071 26.3705ZM56.4812 26.0261C56.6368 26.0001 56.7553 25.9483 56.8331 25.8668C56.9108 25.789 56.9405 25.689 56.922 25.5742C56.9071 25.4594 56.8479 25.3779 56.7405 25.3261C56.6405 25.2779 56.5034 25.2668 56.3294 25.2964C56.1775 25.3224 56.059 25.3742 55.9812 25.4557C55.8997 25.5372 55.8701 25.6335 55.8923 25.7483C55.9071 25.8594 55.9664 25.9409 56.0701 25.9927C56.1701 26.0446 56.3071 26.0557 56.4849 26.0261M55.4368 27.2075C55.3849 27.2149 55.3405 27.2038 55.2997 27.1742C55.2627 27.1446 55.2368 27.1001 55.2294 27.0372C55.2219 26.9742 55.2331 26.9261 55.2664 26.8853C55.2997 26.8446 55.3405 26.8224 55.3923 26.8186C55.4442 26.8112 55.4886 26.8224 55.5294 26.8557C55.5664 26.8853 55.5923 26.9335 55.5997 26.9927C55.6071 27.0557 55.596 27.1038 55.5664 27.1409C55.5331 27.1816 55.4923 27.2001 55.4442 27.2075H55.4368ZM57.322 26.6112L57.3627 26.9557L55.8331 27.1372L55.7923 26.7927L57.322 26.6112ZM55.5145 27.7186L55.8886 27.6853L55.8664 27.4149L56.1219 27.3927L56.1442 27.6631L56.9997 27.589C57.059 27.5853 57.0997 27.5668 57.1257 27.5446C57.1479 27.5186 57.159 27.4779 57.1516 27.4186C57.1516 27.3779 57.1405 27.3372 57.1257 27.3001L57.3923 27.2779C57.422 27.3557 57.4368 27.4298 57.4442 27.5038C57.4664 27.7705 57.3331 27.9149 57.0405 27.9409L56.1701 28.0149L56.1923 28.2668L55.9368 28.289L55.9145 28.0372L55.5405 28.0705L55.5108 27.7261L55.5145 27.7186ZM57.5071 28.7038C57.4627 28.7261 57.4145 28.7409 57.3664 28.7483C57.4849 28.852 57.5479 28.9853 57.5553 29.1446C57.5627 29.3001 57.522 29.4261 57.4368 29.5298C57.3516 29.6298 57.2442 29.6853 57.1145 29.689C56.9516 29.6964 56.822 29.6409 56.7294 29.5224C56.6368 29.4038 56.5849 29.2298 56.5775 29.0038L56.5701 28.7927H56.4701C56.3886 28.8001 56.3257 28.8261 56.2812 28.8705C56.2368 28.9186 56.2145 28.9853 56.2182 29.0779C56.2182 29.1483 56.2405 29.2149 56.2849 29.2705C56.3257 29.3186 56.3775 29.3409 56.4368 29.3409L56.4516 29.6853C56.3627 29.6853 56.2812 29.6631 56.2108 29.6112C56.1294 29.552 56.0701 29.4779 56.0294 29.389C55.9812 29.289 55.959 29.1816 55.9553 29.0705C55.9479 28.889 55.9886 28.7446 56.0738 28.6335C56.159 28.5224 56.2849 28.4631 56.4479 28.452L57.1442 28.4261C57.2812 28.4224 57.3923 28.3964 57.4738 28.3557H57.4997L57.5145 28.7075L57.5071 28.7038ZM57.2701 29.0964C57.2701 29.0298 57.2479 28.9631 57.2145 28.9075C57.1812 28.852 57.1368 28.8075 57.0738 28.7779L56.7849 28.789L56.7923 28.9742C56.796 29.1038 56.8219 29.1964 56.8701 29.2594C56.9182 29.3224 56.9812 29.352 57.0627 29.3483C57.1257 29.3483 57.1775 29.3261 57.2183 29.2779C57.2553 29.2335 57.2738 29.1742 57.2701 29.0964ZM57.2516 30.7816L57.2664 29.9594H57.5442L57.5182 31.2149H57.2923L56.2701 30.4075L56.2553 31.1742H55.9738L55.996 29.9631H56.2145L57.2442 30.7779L57.2516 30.7816ZM55.5368 31.8372C55.4849 31.8372 55.4442 31.8149 55.4071 31.7779C55.3738 31.7409 55.359 31.6927 55.3627 31.6298C55.3627 31.5668 55.3886 31.5186 55.4257 31.489C55.4664 31.4557 55.5108 31.4409 55.5627 31.4446C55.6145 31.4446 55.6553 31.4668 55.6886 31.5038C55.722 31.5409 55.7368 31.589 55.7331 31.652C55.7331 31.7149 55.7108 31.7631 55.6738 31.7927C55.6368 31.8261 55.5923 31.8409 55.5405 31.8335L55.5368 31.8372ZM57.496 31.589L57.4738 31.9335L55.9368 31.8409L55.9553 31.4964L57.496 31.589ZM55.8182 33.1483L55.996 33.1557C55.8701 33.0298 55.8182 32.8742 55.8368 32.689C55.8701 32.3705 56.0701 32.2261 56.4368 32.2594L57.4516 32.3668L57.4145 32.7112L56.4219 32.6038C56.3257 32.5927 56.2516 32.6075 56.1997 32.6446C56.1479 32.6816 56.1183 32.7483 56.1071 32.8446C56.0923 32.9853 56.1442 33.0927 56.2627 33.1742L57.3553 33.289L57.3182 33.6335L55.7849 33.4705L55.8182 33.1446V33.1483ZM57.2071 34.3557C57.1775 34.3668 57.1257 34.3705 57.059 34.3705C57.1553 34.4964 57.1886 34.6409 57.1627 34.7964C57.1368 34.9483 57.0738 35.0668 56.9701 35.1483C56.8664 35.2335 56.7516 35.2631 56.622 35.2372C56.459 35.2112 56.3479 35.1298 56.2775 34.9927C56.2108 34.8557 56.196 34.6779 56.2331 34.4557L56.2701 34.2446L56.1701 34.2261C56.0923 34.2149 56.0257 34.2261 55.9701 34.2594C55.9145 34.2964 55.8812 34.3594 55.8664 34.4483C55.8516 34.5186 55.859 34.5853 55.8923 34.6483C55.922 34.7038 55.9664 34.7372 56.0294 34.7483L55.9738 35.089C55.8849 35.0742 55.8145 35.0335 55.7553 34.9668C55.6886 34.8927 55.6442 34.8075 55.6219 34.7149C55.596 34.6038 55.5923 34.4964 55.6145 34.3853C55.6442 34.2075 55.7145 34.0742 55.822 33.9816C55.9294 33.8927 56.0627 33.8594 56.2257 33.8816L56.9108 33.9964C57.0479 34.0186 57.159 34.0186 57.2479 33.9964H57.2701L57.2108 34.3483L57.2071 34.3557ZM56.896 34.6927C56.9071 34.6261 56.8997 34.5594 56.8775 34.4927C56.8553 34.4298 56.822 34.3779 56.7664 34.3372L56.4812 34.289L56.4516 34.4742C56.4294 34.6001 56.4368 34.7001 56.4701 34.7705C56.5034 34.8446 56.559 34.8853 56.6405 34.8964C56.7034 34.9112 56.759 34.8964 56.8071 34.8557C56.8553 34.8186 56.8812 34.7631 56.896 34.6927ZM55.896 36.8446C55.6627 36.789 55.4886 36.6927 55.3775 36.5483C55.2627 36.4075 55.2294 36.2446 55.2701 36.0631C55.3108 35.8927 55.3997 35.7705 55.5442 35.7001L55.396 35.6483L55.4664 35.3446L56.922 35.6853C57.1182 35.7298 57.259 35.8298 57.3442 35.9779C57.4294 36.1261 57.4479 36.3075 57.3997 36.5149C57.3738 36.6261 57.3257 36.7261 57.2553 36.8224C57.1849 36.9186 57.1071 36.9816 57.0182 37.0186L56.8516 36.8112C56.9997 36.7372 57.0886 36.6224 57.1257 36.4705C57.1516 36.3594 57.1405 36.2631 57.096 36.1853C57.0516 36.1075 56.9701 36.052 56.8516 36.0261L56.7516 36.0038C56.8368 36.1261 56.8627 36.2668 56.8219 36.4298C56.7812 36.6038 56.6775 36.7335 56.5108 36.8112C56.3442 36.889 56.1405 36.9001 55.8923 36.8446M56.0034 36.5149C56.1553 36.5483 56.2812 36.5483 56.3812 36.5038C56.4849 36.4631 56.5479 36.389 56.5701 36.2779C56.5997 36.1409 56.5701 36.0261 56.4664 35.9335L55.8071 35.7779C55.6775 35.8149 55.5997 35.9001 55.5664 36.0372C55.5368 36.1483 55.559 36.2446 55.6368 36.3261C55.7108 36.4075 55.8331 36.4668 56.0034 36.5075M55.4182 36.8964C55.3997 36.9372 55.3812 36.9816 55.3701 37.0298C55.3257 37.1816 55.3553 37.3038 55.4553 37.389L56.4701 37.6816L56.3738 38.0149L54.8923 37.589L54.9849 37.2705L55.1516 37.3112C55.0479 37.1927 55.0145 37.0631 55.0553 36.9224C55.0664 36.8816 55.0849 36.8446 55.1071 36.8112L55.4182 36.9038V36.8964ZM55.3368 38.0705C55.5294 38.1372 55.6849 38.2298 55.8071 38.3483C55.9294 38.4668 56.0071 38.6001 56.0405 38.7483C56.0738 38.9075 56.0627 39.0631 56.0071 39.2149C55.9553 39.3668 55.8664 39.4964 55.7405 39.5964C55.6145 39.6964 55.4701 39.7557 55.3071 39.7668C55.1405 39.7853 54.9627 39.7594 54.7738 39.6927L54.6627 39.6557C54.4738 39.589 54.3145 39.4964 54.1923 39.3742C54.0738 39.2631 53.996 39.1298 53.959 38.9705C53.9257 38.8186 53.9368 38.6668 53.9923 38.5038C54.0479 38.3446 54.1368 38.2186 54.2553 38.1224C54.3738 38.0261 54.5182 37.9705 54.6849 37.952C54.8516 37.9372 55.0331 37.9594 55.222 38.0261L55.3294 38.0631L55.3368 38.0705ZM55.1145 38.3742C54.896 38.2964 54.7182 38.2816 54.5738 38.3224C54.4294 38.3631 54.3294 38.4594 54.2775 38.6112C54.2257 38.7594 54.2442 38.8927 54.3294 39.0186C54.4145 39.1409 54.5627 39.2409 54.7738 39.3186L54.8886 39.3594C55.1034 39.4335 55.2849 39.452 55.4294 39.4075C55.5775 39.3668 55.6775 39.2705 55.7294 39.1224C55.7812 38.9742 55.7664 38.8372 55.6812 38.7149C55.596 38.5927 55.4442 38.4927 55.222 38.4149L55.1182 38.3779L55.1145 38.3742ZM55.0368 41.6001C54.9442 41.8001 54.8071 41.9298 54.6219 41.9964C54.4405 42.0631 54.2442 42.0446 54.0368 41.9483L53.9997 41.9298C53.8664 41.8705 53.7553 41.7853 53.6627 41.6742C53.5775 41.5742 53.5294 41.4594 53.5108 41.3298C53.496 41.2001 53.5145 41.0779 53.5701 40.9594C53.659 40.7705 53.7886 40.652 53.959 40.6038C54.1294 40.5557 54.3257 40.5853 54.5479 40.689L54.6738 40.7483L54.2479 41.6594C54.3664 41.7038 54.4775 41.7075 54.5738 41.6705C54.6738 41.6335 54.7442 41.5631 54.7923 41.4631C54.859 41.3186 54.8553 41.1742 54.7812 41.0298L55.0219 40.9372C55.0775 41.0335 55.1108 41.1372 55.1108 41.252C55.1108 41.3668 55.0886 41.4816 55.0331 41.6001M53.822 41.0816C53.7812 41.1631 53.7775 41.2483 53.8145 41.3335C53.8516 41.4149 53.9182 41.489 54.0182 41.552L54.296 40.9557L54.2738 40.9446C54.1664 40.9038 54.0738 40.8927 53.996 40.9186C53.9182 40.9409 53.859 40.9964 53.8182 41.0853M54.0553 42.9446C54.096 42.8742 54.1071 42.8001 54.0923 42.7186C54.0775 42.6446 54.0368 42.589 53.9701 42.5483L54.1257 42.2594C54.2071 42.3075 54.2738 42.3779 54.3182 42.4668C54.3664 42.5557 54.3849 42.6557 54.3849 42.7631C54.3849 42.8705 54.3553 42.9742 54.2997 43.0705C54.196 43.2594 54.0553 43.3779 53.8701 43.4224C53.6886 43.4668 53.4886 43.4298 53.2701 43.3149L53.2368 43.2964C53.0294 43.1853 52.896 43.0409 52.8294 42.8631C52.7664 42.6853 52.7849 42.5038 52.8849 42.3112C52.9738 42.1483 53.0886 42.0446 53.2405 41.9927C53.3886 41.9409 53.5405 41.9557 53.696 42.0335L53.5405 42.3224C53.4664 42.2816 53.3886 42.2742 53.3071 42.3001C53.2257 42.3224 53.1664 42.3742 53.1294 42.4483C53.0775 42.5483 53.0701 42.6446 53.1145 42.7335C53.1553 42.8261 53.2516 42.9112 53.396 42.989L53.4442 43.0149C53.5923 43.0927 53.7145 43.1261 53.8182 43.1149C53.9182 43.1001 53.996 43.0446 54.0516 42.9446M51.896 43.3075C51.8516 43.2816 51.822 43.2446 51.8071 43.1964C51.7923 43.1483 51.8071 43.1001 51.8368 43.0446C51.8701 42.9927 51.9071 42.9594 51.9553 42.9483C52.0071 42.9372 52.0516 42.9483 52.096 42.9742C52.1405 43.0001 52.1701 43.0372 52.1812 43.0853C52.1923 43.1335 52.1812 43.1816 52.1516 43.2372C52.1182 43.2927 52.0812 43.3224 52.0331 43.3335C51.9849 43.3446 51.9368 43.3372 51.896 43.3075ZM53.7479 43.989L53.5701 44.2853L52.2479 43.4927L52.4257 43.1964L53.7479 43.989ZM52.6812 44.8742L51.9405 43.9964L52.1368 43.6964L53.1331 44.989L52.9701 45.2409L51.3849 44.8446L51.5812 44.5446L52.6849 44.8742H52.6812ZM51.5849 45.1001C51.5516 45.1335 51.5182 45.1705 51.4923 45.2075C51.3997 45.3372 51.3849 45.4594 51.4516 45.5742L52.3034 46.1927L52.0997 46.4742L50.8516 45.5668L51.0479 45.3001L51.1923 45.3964C51.1331 45.2483 51.1479 45.1149 51.2331 44.9964C51.2553 44.9631 51.2849 44.9335 51.322 44.9075L51.5849 45.1001ZM51.5368 47.2409C51.3997 47.4112 51.2331 47.5075 51.0405 47.5261C50.8479 47.5446 50.6627 47.4816 50.4812 47.3372L50.4479 47.3112C50.3331 47.2224 50.2442 47.1112 50.1849 46.9816C50.1294 46.8631 50.1071 46.7409 50.122 46.6075C50.1368 46.4816 50.1849 46.3668 50.2664 46.2668C50.3997 46.1038 50.5516 46.0186 50.7294 46.0149C50.9071 46.0112 51.0886 46.0853 51.2812 46.2372L51.3886 46.3261L50.7553 47.1112C50.8627 47.1816 50.9664 47.2149 51.0701 47.2001C51.1738 47.189 51.2627 47.1409 51.3331 47.052C51.4331 46.9298 51.4627 46.789 51.4257 46.6298L51.6812 46.5964C51.7145 46.7038 51.7183 46.8112 51.6923 46.9224C51.6664 47.0409 51.6108 47.1483 51.5331 47.2409M50.4849 46.4446C50.4257 46.5149 50.4034 46.5964 50.4182 46.6853C50.4331 46.7742 50.4812 46.8594 50.5664 46.9483L50.9812 46.4335L50.9627 46.4186C50.8664 46.352 50.7812 46.3224 50.6997 46.3261C50.6182 46.3298 50.5479 46.3705 50.4886 46.4446M50.2182 47.9372C50.1516 47.8742 50.0775 47.852 49.996 47.8668C49.9182 47.8816 49.8034 47.9335 49.6516 48.0224C49.5034 48.1112 49.3701 48.1705 49.259 48.2038C49.0442 48.2631 48.8664 48.2298 48.7257 48.1001C48.6034 47.9853 48.5479 47.8446 48.559 47.6705C48.5701 47.4964 48.6516 47.3298 48.7997 47.1705C48.896 47.0631 49.0034 46.989 49.1182 46.9409C49.2331 46.8927 49.3479 46.8779 49.4664 46.9001C49.5812 46.9186 49.6849 46.9668 49.7738 47.0483L49.5331 47.3112C49.4553 47.2372 49.3701 47.2075 49.2775 47.2149C49.1849 47.2224 49.0997 47.2742 49.0145 47.3668C48.9368 47.452 48.8923 47.5372 48.8849 47.6187C48.8775 47.7001 48.9071 47.7705 48.9738 47.8335C49.0294 47.8853 49.0997 47.9001 49.1849 47.8853C49.2701 47.8668 49.3849 47.8149 49.5294 47.7298C49.6738 47.6446 49.8034 47.5853 49.9145 47.5557C50.0257 47.5261 50.1257 47.5186 50.2145 47.5372C50.3034 47.5557 50.3886 47.6038 50.4664 47.6742C50.5923 47.7927 50.6516 47.9335 50.6368 48.1001C50.6219 48.2668 50.5405 48.4335 50.3849 48.6001C50.2886 48.7075 50.1738 48.789 50.0442 48.8483C49.9182 48.9038 49.796 48.9224 49.6775 48.9112C49.5516 48.8964 49.4442 48.8446 49.3553 48.7557L49.5997 48.489C49.6886 48.5705 49.7812 48.6001 49.8812 48.589C49.9812 48.5742 50.0812 48.5149 50.1775 48.4075C50.2627 48.3149 50.3071 48.2298 50.3108 48.1483C50.3182 48.0668 50.2886 47.9964 50.2257 47.9409M48.6886 50.7742L48.5812 50.8705L46.9442 49.0372L47.0516 48.9409L48.6923 50.7742H48.6886ZM46.4516 51.6186C46.4034 51.5483 46.3331 51.5149 46.2479 51.5149C46.1627 51.5149 46.0553 51.5409 45.9294 51.6001C45.8034 51.6594 45.696 51.6927 45.6145 51.7075C45.5405 51.7224 45.4701 51.7186 45.396 51.6964C45.3294 51.6705 45.2775 51.6298 45.2368 51.5705C45.1664 51.4742 45.1442 51.3631 45.1812 51.2372C45.2145 51.1149 45.296 51.0038 45.4257 50.9112C45.5627 50.8075 45.6997 50.7594 45.8331 50.7668C45.9664 50.7742 46.0738 50.8335 46.1553 50.9409L46.0182 51.0409C45.9627 50.9631 45.8886 50.9261 45.7923 50.9261C45.696 50.9261 45.6034 50.9557 45.5108 51.0224C45.422 51.089 45.3627 51.1631 45.3368 51.2446C45.3071 51.3224 45.3182 51.3964 45.3701 51.4631C45.4108 51.5261 45.4701 51.5557 45.5442 51.5557C45.6145 51.5557 45.722 51.5261 45.8627 51.4668C46.0034 51.4075 46.1145 51.3705 46.1997 51.3594C46.2849 51.3483 46.3553 51.352 46.4182 51.3779C46.4812 51.4038 46.5368 51.4446 46.5812 51.5112C46.659 51.6149 46.6775 51.7298 46.6405 51.8557C46.6034 51.9816 46.5145 52.0927 46.3775 52.1927C46.2331 52.3001 46.0886 52.3483 45.9479 52.3483C45.8071 52.3446 45.696 52.289 45.6182 52.1816L45.7553 52.0816C45.8182 52.1594 45.896 52.1964 45.996 52.1964C46.0923 52.1964 46.1886 52.1557 46.2923 52.0816C46.3886 52.0112 46.4516 51.9335 46.4775 51.8483C46.5034 51.7631 46.496 51.689 46.4479 51.6224M43.8368 52.0335L43.9849 52.252C43.9812 52.1483 43.9997 52.0446 44.0479 51.952C44.0923 51.8631 44.159 51.789 44.2479 51.7335C44.3886 51.6446 44.5145 51.6149 44.6331 51.6483C44.7516 51.6816 44.8627 51.7779 44.9627 51.9335L45.5145 52.7816L45.3738 52.8742L44.822 52.0261C44.7479 51.9112 44.6664 51.8409 44.5812 51.8149C44.496 51.789 44.3997 51.8149 44.296 51.8816C44.2071 51.9372 44.1479 52.0186 44.1145 52.1186C44.0812 52.2186 44.0812 52.3261 44.1108 52.4409L44.6849 53.3261L44.5442 53.4186L43.7034 52.1261L43.8405 52.0372L43.8368 52.0335ZM42.5849 53.6261C42.5145 53.5038 42.4738 53.3742 42.4627 53.2335C42.4553 53.1038 42.4812 52.9816 42.5368 52.8742C42.596 52.7631 42.6849 52.6779 42.7997 52.6112C42.9775 52.5112 43.159 52.489 43.3405 52.552C43.522 52.6149 43.6701 52.7483 43.7886 52.9557L43.8071 52.9853C43.8812 53.1149 43.922 53.2446 43.9294 53.3779C43.9405 53.5038 43.9145 53.6261 43.8553 53.7372C43.7923 53.8483 43.7034 53.9372 43.5923 53.9964C43.4145 54.0964 43.2331 54.1149 43.0516 54.052C42.8701 53.989 42.722 53.8557 42.6034 53.6483L42.5886 53.6186L42.5849 53.6261ZM42.759 53.5816C42.8479 53.7409 42.9664 53.852 43.1071 53.9075C43.2516 53.9668 43.3886 53.9557 43.5219 53.8779C43.6553 53.8038 43.7368 53.689 43.759 53.5409C43.7849 53.3927 43.7479 53.2335 43.6553 53.0631L43.6405 53.0335C43.5812 52.9298 43.5108 52.8483 43.4257 52.7853C43.3442 52.7224 43.2553 52.689 43.1553 52.6779C43.0553 52.6705 42.9664 52.6927 42.8812 52.7409C42.7442 52.8149 42.6664 52.9261 42.6442 53.0779C42.6182 53.2298 42.6553 53.389 42.7479 53.5557L42.7627 53.5853L42.759 53.5816ZM41.5108 52.8261C41.496 52.7964 41.4923 52.7705 41.5034 52.7372C41.5145 52.7038 41.5331 52.6816 41.5664 52.6668C41.596 52.652 41.6257 52.6483 41.659 52.6594C41.6886 52.6705 41.7108 52.689 41.7257 52.7186C41.7405 52.7483 41.7442 52.7742 41.7331 52.8038C41.7219 52.8372 41.7034 52.8594 41.6701 52.8705C41.6405 52.889 41.6108 52.889 41.5775 52.8816C41.5479 52.8705 41.5257 52.852 41.5108 52.8261ZM42.5923 54.5075L42.4405 54.5853L41.7405 53.2112L41.8923 53.1335L42.5923 54.5075ZM40.959 53.152L41.1257 53.5075L41.4145 53.3705L41.4738 53.4964L41.1849 53.6335L41.622 54.5631C41.659 54.6409 41.6997 54.6927 41.7442 54.7149C41.7886 54.7409 41.8442 54.7372 41.9108 54.7075C41.9368 54.6964 41.9775 54.6705 42.0294 54.6372L42.096 54.7594C42.0516 54.8001 41.9997 54.8335 41.9405 54.8594C41.8368 54.9075 41.7442 54.9149 41.6664 54.8742C41.5886 54.8335 41.522 54.7557 41.4664 54.6372L41.0294 53.7075L40.7738 53.8298L40.7145 53.7038L40.9701 53.5816L40.8034 53.2224L40.959 53.1483V53.152ZM40.9479 55.2853C40.9145 55.2483 40.8775 55.1853 40.8368 55.1001C40.8108 55.1964 40.7627 55.2816 40.696 55.3557C40.6257 55.4298 40.5442 55.489 40.4479 55.5261C40.3108 55.5816 40.1849 55.589 40.0664 55.5483C39.9479 55.5075 39.8664 55.4298 39.8182 55.3112C39.7553 55.1705 39.7701 55.0372 39.8553 54.9112C39.9368 54.7816 40.0812 54.6779 40.2886 54.5927L40.5738 54.4742L40.5071 54.3112C40.4664 54.2112 40.3997 54.1409 40.3145 54.1112C40.2257 54.0779 40.1257 54.0853 40.0034 54.1372C39.8923 54.1816 39.8145 54.2483 39.7664 54.3335C39.7182 54.4186 39.7108 54.5001 39.7442 54.5816L39.5849 54.6446C39.5368 54.5298 39.5516 54.4112 39.622 54.2853C39.6923 54.1594 39.8071 54.0631 39.959 54.0001C40.1182 53.9335 40.259 53.9224 40.3849 53.9631C40.5108 54.0038 40.6034 54.0964 40.6627 54.2372L40.9405 54.9112C40.996 55.0483 41.0553 55.1446 41.1108 55.2038L41.1182 55.2186L40.9479 55.289V55.2853ZM40.4071 55.3742C40.5108 55.3335 40.5923 55.2705 40.659 55.1816C40.722 55.0964 40.7516 55.0038 40.7553 54.9038L40.6257 54.589L40.3442 54.7038C40.1886 54.7705 40.0775 54.8483 40.0108 54.9409C39.9442 55.0335 39.9331 55.1298 39.9738 55.2261C40.0034 55.3075 40.0627 55.3594 40.1442 55.389C40.2257 55.4186 40.3145 55.4112 40.4071 55.3742ZM38.6997 55.9853L39.6442 55.6557L39.6923 55.7927L38.5479 56.1927L38.5071 56.0742L38.9738 54.5705L38.1182 54.8668L38.0701 54.7261L39.1294 54.3594L39.1701 54.4816L38.6997 55.989V55.9853ZM37.3849 54.4668C37.3738 54.4372 37.3775 54.4075 37.3923 54.3779C37.4071 54.352 37.4294 54.3335 37.4627 54.3223C37.496 54.3112 37.5294 54.3149 37.5553 54.3298C37.5812 54.3446 37.5997 54.3668 37.6108 54.4001C37.6182 54.4298 37.6182 54.4594 37.6034 54.4853C37.5886 54.5149 37.5627 54.5335 37.5294 54.5409C37.496 54.552 37.4627 54.5483 37.4368 54.5335C37.4108 54.5187 37.3923 54.4964 37.3849 54.4631V54.4668ZM38.1516 56.3075L37.9886 56.3557L37.5405 54.8816L37.7034 54.8335L38.1516 56.3075ZM36.1405 55.2631L36.2108 55.5149C36.2442 55.4075 36.296 55.3224 36.3664 55.252C36.4405 55.1816 36.5257 55.1335 36.6257 55.1075C36.7849 55.0668 36.9182 55.0816 37.0182 55.152C37.1182 55.2224 37.1923 55.3483 37.2405 55.5261L37.4923 56.5038L37.3294 56.5446L37.0775 55.5631C37.0405 55.4298 36.9886 55.3372 36.9182 55.2853C36.8442 55.2335 36.7479 55.2261 36.6257 55.2557C36.522 55.2816 36.4405 55.3372 36.3775 55.4224C36.3145 55.5075 36.2812 55.6075 36.2701 55.7261L36.5331 56.7483L36.3701 56.789L35.9886 55.2964L36.1479 55.2557L36.1405 55.2631ZM35.7145 56.9372C35.6886 56.8927 35.6627 56.8261 35.6405 56.7335C35.596 56.8223 35.5331 56.8927 35.4516 56.952C35.3664 57.0112 35.2738 57.052 35.1738 57.0705C35.0294 57.1001 34.9034 57.0816 34.796 57.0149C34.6886 56.952 34.622 56.8557 34.6034 56.7335C34.5738 56.5853 34.6145 56.4594 34.722 56.3483C34.8294 56.2372 34.9923 56.1631 35.2108 56.1224L35.5145 56.0631L35.4812 55.889C35.459 55.7816 35.4108 55.7001 35.3331 55.652C35.2553 55.6038 35.1516 55.589 35.0257 55.6149C34.9071 55.6372 34.8182 55.6853 34.7516 55.7594C34.6849 55.8335 34.6627 55.9149 34.6775 55.9964L34.5108 56.0261C34.4886 55.9075 34.5257 55.789 34.6182 55.6816C34.7145 55.5705 34.8405 55.5001 35.0071 55.4705C35.1775 55.4372 35.3182 55.4557 35.4294 55.5224C35.5442 55.589 35.6145 55.6964 35.6479 55.8483L35.7849 56.5631C35.8145 56.7112 35.8516 56.8149 35.896 56.8816V56.9001L35.7182 56.9335L35.7145 56.9372ZM35.1627 56.9186C35.2738 56.8964 35.3701 56.852 35.4479 56.7779C35.5257 56.7075 35.5738 56.6224 35.5997 56.5224L35.5368 56.189L35.2368 56.2446C35.0701 56.2779 34.9442 56.3335 34.8627 56.4112C34.7812 56.489 34.7479 56.5779 34.7664 56.6816C34.7812 56.7668 34.8257 56.8335 34.9034 56.8742C34.9775 56.9186 35.0627 56.9298 35.1664 56.9112M32.9034 56.589C32.8738 56.3483 32.9034 56.152 32.9886 56.0001C33.0775 55.8446 33.2108 55.7594 33.3923 55.7335C33.5997 55.7075 33.7701 55.7705 33.8997 55.9224L33.8775 55.7001L34.0368 55.6779L34.2294 57.1742C34.2553 57.3705 34.2182 57.5335 34.1257 57.6631C34.0294 57.7927 33.8886 57.8705 33.6997 57.8927C33.5923 57.9075 33.4886 57.8927 33.3849 57.8594C33.2886 57.8261 33.2034 57.7742 33.1331 57.7001L33.2145 57.5853C33.3516 57.7186 33.5034 57.7705 33.6701 57.752C33.8108 57.7335 33.9182 57.6779 33.9849 57.5853C34.0553 57.4927 34.0775 57.3705 34.0627 57.2224L34.0368 57.0298C33.9479 57.1927 33.7997 57.289 33.5923 57.3186C33.4145 57.3483 33.2627 57.2927 33.1368 57.1631C33.0108 57.0372 32.9331 56.852 32.9034 56.6112V56.589ZM33.0812 56.5964C33.1071 56.7927 33.1664 56.9409 33.259 57.0409C33.3516 57.1446 33.4701 57.1853 33.6108 57.1668C33.8182 57.1409 33.9553 57.0261 34.0182 56.8298L33.9257 56.1186C33.8812 56.0298 33.8108 55.9631 33.7257 55.9149C33.6368 55.8705 33.5442 55.8594 33.4479 55.8742C33.3071 55.8927 33.2034 55.9631 33.1368 56.0853C33.0701 56.2075 33.0553 56.3779 33.0812 56.5927M32.6331 55.9964C32.596 55.9927 32.5553 55.9927 32.5182 55.9964C32.4182 56.0001 32.3294 56.0372 32.2553 56.1075C32.1849 56.1742 32.1405 56.2631 32.1182 56.3779L32.1997 57.4335L32.0294 57.4483L31.9071 55.9112L32.0738 55.9001L32.096 56.1446C32.1701 55.9557 32.3071 55.852 32.5071 55.8372C32.5479 55.8335 32.5849 55.8372 32.622 55.8483L32.6294 56.0038L32.6331 55.9964ZM31.5368 56.5594C31.5405 56.7483 31.5108 56.9187 31.4479 57.0631C31.3849 57.2112 31.2923 57.3224 31.1738 57.4038C31.0442 57.489 30.9034 57.5298 30.7516 57.5298C30.5108 57.5335 30.3108 57.452 30.159 57.2816C30.0071 57.1112 29.9257 56.8816 29.9182 56.5853V56.3705C29.9071 56.1816 29.9368 56.0149 30.0034 55.8668C30.0664 55.7186 30.159 55.6038 30.2812 55.5261C30.4071 55.4409 30.5479 55.4001 30.6997 55.4001C30.859 55.3964 30.9997 55.4298 31.1257 55.5038C31.2479 55.5779 31.3479 55.6853 31.4145 55.8224C31.4849 55.9631 31.522 56.1224 31.5294 56.3075L31.5368 56.5557V56.5594ZM31.3553 56.3372C31.3479 56.089 31.2886 55.8927 31.1738 55.7557C31.059 55.6186 30.8997 55.5483 30.7034 55.5557C30.5108 55.5594 30.359 55.6335 30.2479 55.7779C30.1368 55.9224 30.0849 56.1224 30.0886 56.3779V56.5964C30.0997 56.8409 30.1627 57.0372 30.2775 57.1779C30.396 57.3187 30.5516 57.3853 30.7479 57.3816C30.9442 57.3779 31.0997 57.3001 31.2071 57.1557C31.3145 57.0112 31.3664 56.8112 31.359 56.5594V56.3409L31.3553 56.3372ZM28.2442 57.4779C27.9664 57.4631 27.7738 57.3261 27.6664 57.0705C27.6145 56.9446 27.5923 56.8112 27.6034 56.6779V56.6149C27.6182 56.4668 27.6553 56.3372 27.722 56.2224C27.7886 56.1075 27.8738 56.0186 27.9812 55.9594C28.0886 55.9001 28.1997 55.8705 28.322 55.8816C28.5071 55.8964 28.6516 55.9705 28.7516 56.1038C28.8516 56.2372 28.896 56.4149 28.8812 56.6372L28.8738 56.7335L27.7775 56.6594V56.6927C27.7627 56.8668 27.8034 57.0149 27.896 57.1372C27.9886 57.2594 28.1108 57.3261 28.2627 57.3372C28.3479 57.3446 28.4294 57.3372 28.5071 57.3038C28.5775 57.2742 28.6479 57.2261 28.7071 57.1557L28.8071 57.2446C28.6701 57.4186 28.4812 57.4964 28.2442 57.4779ZM28.3145 56.0261C28.1849 56.0149 28.0738 56.0557 27.9812 56.1446C27.8886 56.2335 27.8257 56.3557 27.796 56.5112L28.7182 56.5742V56.5557C28.7257 56.4075 28.6923 56.2853 28.6182 56.1853C28.5442 56.0816 28.4442 56.0298 28.3145 56.0261ZM26.6664 57.1816C26.7849 57.1964 26.8886 57.1779 26.9738 57.1186C27.0627 57.0631 27.1145 56.9816 27.1368 56.8779L27.2997 56.9001C27.2849 56.9927 27.2442 57.0742 27.1812 57.1446C27.1145 57.2149 27.0368 57.2668 26.9442 57.2964C26.8479 57.3298 26.7516 57.3372 26.6516 57.3261C26.4516 57.3001 26.2997 57.2112 26.1997 57.0557C26.0997 56.9001 26.0664 56.7075 26.096 56.4705L26.1034 56.4186C26.1182 56.2779 26.1627 56.1483 26.2331 56.0298C26.2997 55.9224 26.3886 55.8409 26.4923 55.789C26.5997 55.7372 26.7182 55.7224 26.8516 55.7372C27.0182 55.7594 27.1516 55.8261 27.2479 55.9409C27.3442 56.0557 27.3849 56.1927 27.3738 56.3557L27.2108 56.3335C27.2182 56.2149 27.1886 56.1112 27.1182 56.0261C27.0479 55.9409 26.9553 55.8927 26.8368 55.8779C26.6849 55.8594 26.559 55.9001 26.459 55.9964C26.359 56.0964 26.2997 56.2446 26.2738 56.4446L26.2664 56.4927C26.2405 56.689 26.2664 56.8446 26.3368 56.9668C26.4071 57.0853 26.5182 57.1557 26.6738 57.1742M25.5738 57.1409L25.4034 57.1112L25.659 55.5927L25.8294 55.6223L25.5738 57.1409ZM25.7071 55.1483C25.7182 55.0668 25.7627 55.0372 25.8405 55.0557C25.8738 55.0594 25.8997 55.0742 25.9182 55.1038C25.9368 55.1298 25.9442 55.1594 25.9368 55.189C25.9331 55.2186 25.9182 55.2446 25.8923 55.2631C25.8664 55.2816 25.8331 55.289 25.8034 55.2816C25.7701 55.2779 25.7442 55.2631 25.7257 55.2372C25.7071 55.2112 25.7034 55.1816 25.7071 55.152V55.1483ZM24.4812 56.6964L25.2071 55.5149L25.3775 55.552L24.496 56.9409L24.359 56.9112L24.1108 55.2853L24.2812 55.3223L24.4775 56.7001L24.4812 56.6964ZM23.9627 55.3927C23.9257 55.3779 23.8923 55.3631 23.8553 55.3557C23.7516 55.3298 23.659 55.3335 23.5701 55.3742C23.4849 55.4112 23.4108 55.4853 23.3516 55.5853L23.0849 56.6112L22.922 56.5705L23.3108 55.0779L23.4701 55.1187L23.4108 55.3557C23.5442 55.2001 23.7071 55.1483 23.8997 55.2001C23.9442 55.2112 23.9812 55.2261 24.0034 55.2446L23.959 55.3927H23.9627ZM21.9812 56.3224C21.7145 56.2446 21.559 56.0668 21.5145 55.7927C21.4923 55.6557 21.5034 55.5261 21.5442 55.3964L21.5627 55.3372C21.6071 55.1964 21.6738 55.0779 21.7627 54.9816C21.8516 54.8853 21.9553 54.8186 22.0738 54.7853C22.1923 54.752 22.3071 54.752 22.422 54.7853C22.5997 54.8409 22.722 54.9446 22.7886 55.1001C22.8553 55.2557 22.8553 55.4372 22.7886 55.6483L22.759 55.7409L21.7108 55.4149L21.6997 55.4446C21.6479 55.6112 21.6516 55.7668 21.7145 55.9075C21.7738 56.0483 21.8775 56.1409 22.022 56.1853C22.1108 56.2112 22.1923 56.2224 22.2664 56.2112C22.3442 56.2001 22.4182 56.1668 22.496 56.1149L22.5738 56.2261C22.3997 56.3631 22.1997 56.3927 21.9738 56.3224M22.3812 54.9223C22.259 54.8816 22.1405 54.8964 22.0294 54.9594C21.9182 55.0224 21.8294 55.1261 21.7627 55.2742L22.6442 55.5483V55.5298C22.6886 55.3853 22.6849 55.2594 22.6368 55.1446C22.5886 55.0261 22.5034 54.952 22.3812 54.9186M21.0405 55.4446C21.0812 55.3372 21.0775 55.2372 21.0257 55.1483C20.9738 55.0557 20.859 54.9446 20.6812 54.8112C20.5034 54.6779 20.3812 54.5594 20.3108 54.4594C20.2145 54.3149 20.196 54.1668 20.2553 54.0149C20.3108 53.8668 20.4182 53.7705 20.5775 53.7224C20.7368 53.6779 20.9071 53.689 21.0997 53.7594C21.2294 53.8075 21.3331 53.8779 21.4182 53.9668C21.4997 54.0557 21.5553 54.1557 21.5738 54.2631C21.596 54.3742 21.5849 54.4816 21.5442 54.5927L21.3775 54.5298C21.4294 54.3964 21.422 54.2742 21.3627 54.1594C21.3034 54.0446 21.196 53.9557 21.0442 53.9001C20.896 53.8446 20.7664 53.8298 20.6516 53.8631C20.5368 53.8927 20.4627 53.9631 20.422 54.0705C20.3812 54.1705 20.3886 54.2668 20.4479 54.3557C20.5034 54.4483 20.6071 54.552 20.7627 54.6631C20.9182 54.7779 21.0331 54.8779 21.1034 54.9631C21.1738 55.0483 21.2182 55.1335 21.2368 55.2224C21.2553 55.3187 21.2442 55.4112 21.2071 55.5001C21.1479 55.652 21.0405 55.752 20.8849 55.7964C20.7294 55.8409 20.5479 55.8261 20.3516 55.752C20.222 55.7038 20.1034 55.6298 20.0034 55.5372C19.9071 55.4446 19.8479 55.3446 19.822 55.2335C19.796 55.1186 19.8034 55.0075 19.8479 54.8964L20.0108 54.9594C19.959 55.0964 19.9701 55.2224 20.0405 55.3409C20.1108 55.4594 20.2331 55.5483 20.4034 55.6149C20.5553 55.6742 20.6886 55.6853 20.8034 55.652C20.922 55.6261 20.9997 55.552 21.0405 55.4409M19.3331 53.7964C19.2997 53.7742 19.2664 53.7557 19.2331 53.7372C19.1442 53.6927 19.0479 53.6779 18.9516 53.7001C18.859 53.7224 18.7775 53.7779 18.6997 53.8668L18.2442 54.8224L18.0923 54.7483L18.7553 53.3557L18.9071 53.4261L18.8034 53.6483C18.9627 53.5224 19.1331 53.5001 19.3145 53.589C19.3553 53.6112 19.3886 53.6298 19.4071 53.6557L19.3368 53.7927L19.3331 53.7964ZM16.8738 53.2186C16.9442 53.089 17.0331 52.9853 17.1405 52.9075C17.2479 52.8298 17.3627 52.789 17.4849 52.7779C17.6071 52.7705 17.7294 52.7964 17.8479 52.8594C18.0294 52.9557 18.1405 53.1001 18.1849 53.2853C18.2294 53.4742 18.196 53.6705 18.0812 53.8779L18.0627 53.9075C17.996 54.0335 17.9071 54.1372 17.796 54.2224C17.6886 54.3001 17.5738 54.3409 17.4516 54.3483C17.322 54.3557 17.2034 54.3261 17.0923 54.2631C16.9108 54.1668 16.7997 54.0224 16.7553 53.8372C16.7108 53.6483 16.7442 53.452 16.859 53.2409L16.8738 53.2112V53.2186ZM16.9997 53.3409C16.9108 53.5038 16.8812 53.6594 16.9108 53.8075C16.9405 53.9557 17.022 54.0668 17.159 54.1409C17.296 54.2149 17.4331 54.2224 17.5738 54.1631C17.7145 54.1038 17.8294 53.989 17.922 53.8186L17.9368 53.789C17.9923 53.6853 18.0257 53.5816 18.0331 53.4742C18.0405 53.3668 18.022 53.2705 17.9775 53.1853C17.9331 53.0964 17.8664 53.0298 17.7775 52.9853C17.6442 52.9075 17.5071 52.9038 17.3664 52.9668C17.2257 53.0261 17.1108 53.1409 17.0182 53.3112L17.0034 53.3372L16.9997 53.3409ZM15.8034 53.5001L16.5294 52.3001L16.3108 52.1668L16.3812 52.0483L16.5997 52.1816L16.696 52.0224C16.7775 51.8853 16.8738 51.8038 16.9886 51.7742C17.0997 51.7446 17.2182 51.7668 17.3405 51.8409C17.396 51.8742 17.4442 51.9112 17.4812 51.9557L17.396 52.0705C17.359 52.0335 17.3182 52.0001 17.2738 51.9742C17.1923 51.9261 17.1145 51.9112 17.0405 51.9372C16.9664 51.9594 16.8997 52.0186 16.8442 52.1112L16.7442 52.2742L17.059 52.4631L16.9886 52.5816L16.6738 52.3927L15.9479 53.5927L15.7997 53.5038L15.8034 53.5001ZM15.0627 52.2631C14.9145 52.4261 14.7553 52.5149 14.5812 52.5335C14.4071 52.5483 14.2294 52.4927 14.0516 52.3631C13.9294 52.2779 13.8442 52.1668 13.7886 52.0298C13.7368 51.889 13.7257 51.7483 13.759 51.6038C13.7886 51.452 13.8553 51.3001 13.9627 51.1557L14.122 50.9372C14.2294 50.789 14.3516 50.6742 14.4886 50.5964C14.6182 50.5186 14.759 50.4853 14.9071 50.4927C15.0516 50.5001 15.1849 50.552 15.3145 50.6446C15.496 50.7742 15.6034 50.9261 15.6368 51.0964C15.6701 51.2705 15.6368 51.4483 15.5257 51.6298L15.3812 51.5261C15.5516 51.2149 15.4997 50.9594 15.2257 50.7631C15.0738 50.652 14.9108 50.6223 14.7368 50.6705C14.5627 50.7186 14.4034 50.8446 14.259 51.0446L14.1108 51.252C13.9701 51.4446 13.9034 51.6335 13.9071 51.8112C13.9108 51.9927 13.9886 52.1335 14.1405 52.2446C14.2886 52.352 14.4257 52.3964 14.5553 52.3816C14.6812 52.3668 14.8034 52.2927 14.9257 52.1631L15.0701 52.2668L15.0627 52.2631ZM13.6627 50.8964C13.5405 51.0446 13.4071 51.1483 13.2627 51.2186C13.1182 51.289 12.9738 51.3112 12.8331 51.2927C12.6812 51.2705 12.5479 51.2112 12.4331 51.1075C12.2479 50.952 12.1553 50.7594 12.1516 50.5298C12.1516 50.3001 12.2442 50.0742 12.4331 49.8483L12.5701 49.6853C12.6923 49.5409 12.8257 49.4335 12.9701 49.3668C13.1145 49.3001 13.259 49.2742 13.4034 49.2927C13.5479 49.3112 13.6812 49.3742 13.8034 49.4742C13.9257 49.5779 14.0071 49.6964 14.0516 49.8335C14.096 49.9705 14.096 50.1149 14.059 50.2668C14.0182 50.4149 13.9405 50.5631 13.8257 50.7075L13.6664 50.8964H13.6627ZM13.6701 50.6112C13.8294 50.4223 13.9145 50.2335 13.9182 50.052C13.922 49.8705 13.8479 49.7186 13.6997 49.5927C13.5516 49.4705 13.3886 49.4223 13.2108 49.4594C13.0331 49.4964 12.8627 49.6075 12.696 49.8038L12.5553 49.9705C12.396 50.1594 12.3145 50.3446 12.3108 50.5298C12.3071 50.7149 12.3775 50.8668 12.5257 50.9927C12.6775 51.1186 12.8405 51.1668 13.0182 51.1298C13.196 51.0927 13.3664 50.9779 13.5294 50.7816L13.6701 50.6149V50.6112ZM11.7701 49.8112C11.8516 49.7298 11.8849 49.6335 11.8738 49.5298C11.8627 49.4261 11.7997 49.2779 11.6886 49.0853C11.5775 48.8927 11.5071 48.7372 11.4886 48.6149C11.459 48.4446 11.4997 48.3001 11.6108 48.1853C11.722 48.0705 11.859 48.0224 12.022 48.0446C12.1849 48.0631 12.3405 48.1446 12.4849 48.2853C12.5849 48.3816 12.6553 48.4853 12.696 48.6001C12.7368 48.7149 12.7479 48.8261 12.722 48.9372C12.6997 49.0483 12.6479 49.1446 12.5664 49.2261L12.4405 49.1038C12.5405 49.0001 12.5849 48.8853 12.5738 48.7557C12.5627 48.6261 12.4997 48.5038 12.3849 48.3927C12.2701 48.2816 12.1553 48.2186 12.0368 48.2038C11.922 48.1853 11.822 48.2186 11.7405 48.3038C11.6627 48.3816 11.6331 48.4705 11.6516 48.5779C11.6664 48.6853 11.722 48.8224 11.822 48.9853C11.9182 49.152 11.9849 49.289 12.0145 49.3927C12.0442 49.5001 12.0516 49.5964 12.0331 49.6853C12.0108 49.7816 11.9664 49.8631 11.896 49.9298C11.7849 50.052 11.6442 50.1001 11.4812 50.0742C11.3182 50.0557 11.159 49.9705 11.0071 49.8224C10.9071 49.7261 10.8257 49.6149 10.7738 49.4853C10.722 49.3631 10.7071 49.2446 10.7257 49.1335C10.7479 49.0224 10.7997 48.9224 10.8812 48.8335L11.0071 48.9557C10.9071 49.0594 10.8627 49.1816 10.8849 49.3186C10.9034 49.4557 10.9812 49.5853 11.1108 49.7112C11.2257 49.8224 11.3442 49.889 11.4627 49.9038C11.5812 49.9224 11.6849 49.8853 11.7664 49.8038" fill="white"/>
<path d="M13.011 29.1152H48.4406" stroke="#111111" stroke-width="0.0962963" stroke-linecap="round" stroke-linejoin="round"/>
<path fill-rule="evenodd" clip-rule="evenodd" d="M40.9367 45.6632C40.9367 45.4891 40.9701 45.3299 41.0404 45.1891C41.1034 45.0521 41.1997 44.9447 41.3293 44.8632C41.4515 44.7854 41.5923 44.7484 41.7515 44.7484C41.996 44.7484 42.1923 44.8336 42.3441 45.004C42.496 45.1743 42.5701 45.3966 42.5701 45.678V45.7003C42.5701 45.8743 42.5367 46.0299 42.4701 46.1706C42.4071 46.3077 42.3108 46.4151 42.1849 46.4965C42.0515 46.578 41.9108 46.6151 41.7552 46.6114C41.5108 46.6114 41.3145 46.5262 41.1627 46.3595C41.0108 46.1891 40.9367 45.9669 40.9367 45.6891V45.6669V45.6632ZM41.2441 45.7003C41.2441 45.9003 41.2886 46.0595 41.3812 46.178C41.4738 46.304 41.596 46.3632 41.7515 46.3595C41.9071 46.3595 42.0293 46.3003 42.1219 46.178C42.2145 46.0558 42.2589 45.8854 42.2589 45.6669C42.2589 45.4706 42.2108 45.3114 42.1182 45.1891C42.0256 45.0632 41.9034 45.0003 41.7478 45.0077C41.596 45.0077 41.4738 45.0669 41.3812 45.1891C41.2886 45.3114 41.2404 45.4817 41.2404 45.7077M40.396 46.1003C40.3997 46.0188 40.3701 45.9558 40.3034 45.9077C40.2404 45.8632 40.133 45.8225 39.9775 45.7891C39.8219 45.7558 39.6997 45.7151 39.6071 45.6706C39.5145 45.6262 39.4478 45.5669 39.4034 45.504C39.3589 45.4336 39.3367 45.3595 39.3367 45.2743C39.3367 45.1262 39.3997 45.004 39.5219 44.9003C39.6478 44.8003 39.8034 44.7484 39.9997 44.7484C40.2034 44.7484 40.3664 44.8003 40.496 44.904C40.6219 45.0077 40.6849 45.1447 40.6849 45.3077H40.3775C40.3775 45.2225 40.3404 45.1521 40.2701 45.0891C40.1997 45.0299 40.1071 44.9966 39.9997 44.9966C39.8923 44.9966 39.7997 45.0188 39.7367 45.0706C39.6738 45.1188 39.6404 45.1817 39.6441 45.2632C39.6441 45.3373 39.6738 45.3928 39.733 45.4299C39.7923 45.4669 39.896 45.504 40.0515 45.5373C40.2034 45.5706 40.3293 45.6114 40.4219 45.6595C40.5182 45.7077 40.5886 45.7632 40.633 45.8299C40.6775 45.8966 40.7034 45.978 40.7034 46.0743C40.7034 46.2336 40.6404 46.3632 40.5108 46.4595C40.3812 46.5558 40.2182 46.604 40.0108 46.604C39.8664 46.604 39.7404 46.578 39.6293 46.5262C39.5219 46.4817 39.4367 46.4077 39.3701 46.3114C39.3071 46.2225 39.2775 46.1262 39.2775 46.0151H39.5849C39.5886 46.1188 39.633 46.2003 39.7071 46.2595C39.7849 46.3188 39.8849 46.3484 40.0108 46.3484C40.1256 46.3484 40.2182 46.3262 40.2886 46.278C40.3589 46.2373 40.396 46.1743 40.3923 46.0891M38.7923 45.7632H39.1256V46.0151H38.7923V46.5743H38.4849V46.0151H37.3849V45.8336L38.4664 44.1632H38.7923V45.7669V45.7632ZM37.7367 45.7632H38.4886V44.5817L38.4515 44.6484L37.7367 45.7632ZM36.5589 46.3595C36.6701 46.3595 36.7627 46.3262 36.8441 46.2595C36.9256 46.1965 36.9701 46.1151 36.9812 46.0114H37.2701C37.2627 46.1188 37.2293 46.2188 37.1627 46.304C37.096 46.3966 37.0108 46.4706 36.9034 46.5262C36.796 46.5817 36.6812 46.6077 36.5589 46.6077C36.3145 46.6077 36.1219 46.5262 35.9775 46.3632C35.833 46.2003 35.7627 45.978 35.7627 45.6928V45.641C35.7627 45.4669 35.796 45.3114 35.8589 45.1743C35.9219 45.0373 36.0145 44.9336 36.133 44.8595C36.2515 44.7854 36.396 44.7484 36.5589 44.7484C36.7589 44.7484 36.9256 44.8077 37.0589 44.9299C37.1923 45.0521 37.2627 45.2077 37.2701 45.4003H36.9812C36.9775 45.2854 36.933 45.1928 36.8478 45.1151C36.7664 45.0373 36.6701 45.0003 36.5552 45.004C36.3997 45.004 36.2775 45.0595 36.1923 45.1706C36.1071 45.2817 36.0627 45.4447 36.0627 45.6558V45.7151C36.0627 45.9225 36.1071 46.0817 36.1923 46.1928C36.2775 46.304 36.3997 46.3595 36.5552 46.3595M33.9108 45.6632C33.9108 45.4891 33.9441 45.3299 34.0145 45.1891C34.0849 45.0484 34.1775 44.941 34.3034 44.8632C34.4256 44.7854 34.5664 44.7484 34.7256 44.7484C34.9701 44.7484 35.1664 44.8336 35.3182 45.004C35.4701 45.1743 35.5441 45.3966 35.5441 45.678V45.7003C35.5441 45.8743 35.5108 46.0299 35.4441 46.1706C35.3812 46.3077 35.2849 46.4151 35.1589 46.4965C35.0293 46.578 34.8849 46.6151 34.7293 46.6114C34.4886 46.6114 34.2886 46.5262 34.1404 46.3595C33.9886 46.1891 33.9145 45.9669 33.9145 45.6891V45.6669L33.9108 45.6632ZM34.2182 45.7003C34.2182 45.9003 34.2627 46.0595 34.3552 46.178C34.4478 46.2965 34.5701 46.3595 34.7256 46.3595C34.8812 46.3595 35.0034 46.3003 35.096 46.178C35.1886 46.0558 35.233 45.8854 35.233 45.6669C35.233 45.4706 35.1849 45.3114 35.0923 45.1891C34.9997 45.0632 34.8775 45.0003 34.7219 45.0077C34.5701 45.0077 34.4478 45.0669 34.3552 45.1891C34.2627 45.3114 34.2145 45.4817 34.2145 45.7077L34.2182 45.7003ZM33.3701 46.1003C33.3701 46.0188 33.3404 45.9558 33.2775 45.9077C33.2145 45.8632 33.1071 45.8225 32.9515 45.7891C32.796 45.7558 32.6738 45.7151 32.5812 45.6706C32.4886 45.6262 32.4219 45.5669 32.3775 45.504C32.333 45.4336 32.3108 45.3595 32.3108 45.2743C32.3108 45.1262 32.3738 45.004 32.496 44.9003C32.6219 44.8003 32.7775 44.7484 32.9738 44.7484C33.1775 44.7484 33.3404 44.8003 33.4664 44.904C33.5923 45.0077 33.6552 45.1447 33.6552 45.3077H33.3478C33.3478 45.2225 33.3108 45.1521 33.2404 45.0891C33.1701 45.0299 33.0812 44.9966 32.9701 44.9966C32.8589 44.9966 32.7701 45.0188 32.7071 45.0706C32.6441 45.1188 32.6108 45.1817 32.6108 45.2632C32.6108 45.3373 32.6404 45.3928 32.6997 45.4299C32.7589 45.4669 32.8627 45.504 33.0182 45.5373C33.1701 45.5706 33.296 45.6114 33.3886 45.6595C33.4849 45.7077 33.5552 45.7632 33.5997 45.8299C33.6441 45.8966 33.6701 45.978 33.6701 46.0743C33.6701 46.2336 33.6071 46.3632 33.4775 46.4595C33.3478 46.5558 33.1849 46.604 32.9812 46.604C32.8367 46.604 32.7108 46.578 32.5997 46.5262C32.4923 46.4817 32.4071 46.4077 32.3404 46.3114C32.2775 46.2225 32.2478 46.1262 32.2478 46.0151H32.5552C32.5627 46.1188 32.6034 46.2003 32.6775 46.2595C32.7552 46.3188 32.8552 46.3484 32.9812 46.3484C33.096 46.3484 33.1886 46.3262 33.2589 46.278C33.3293 46.2373 33.3664 46.1743 33.3627 46.0891M31.0738 46.7817H30.8108L31.8182 44.1632H32.0812L31.0738 46.7817ZM29.1219 45.6632C29.1219 45.3817 29.1849 45.1632 29.3145 44.9966C29.4441 44.8299 29.6145 44.7484 29.8293 44.7484C30.0441 44.7484 30.2182 44.8262 30.3404 44.9817L30.3552 44.7817H30.6367V46.5299C30.6367 46.7632 30.5664 46.9447 30.4293 47.078C30.2923 47.2114 30.1071 47.278 29.8738 47.278C29.7441 47.278 29.6182 47.2521 29.496 47.1965C29.3738 47.141 29.2775 47.0669 29.2145 46.9706L29.3738 46.7854C29.5034 46.9484 29.6664 47.0299 29.8552 47.0299C30.0034 47.0299 30.1219 46.9891 30.2034 46.904C30.2886 46.8188 30.3293 46.704 30.3293 46.5484V46.3928C30.2071 46.5336 30.0404 46.6077 29.8293 46.6077C29.6182 46.6077 29.4515 46.5225 29.3182 46.3521C29.1886 46.1817 29.1219 45.9521 29.1219 45.6632ZM29.4293 45.7003C29.4293 45.904 29.4701 46.0595 29.5552 46.178C29.6367 46.2928 29.7552 46.3521 29.9034 46.3521C30.096 46.3521 30.2367 46.2632 30.3293 46.0891V45.2706C30.2367 45.1003 30.096 45.0151 29.9071 45.0151C29.7589 45.0151 29.6404 45.0743 29.5589 45.1891C29.4738 45.304 29.433 45.478 29.433 45.704M28.9997 45.0558C28.9478 45.0484 28.8997 45.0447 28.8478 45.0447C28.6478 45.0447 28.5108 45.1299 28.4404 45.3003V46.5706H28.133V44.778H28.433V44.9854C28.5367 44.8262 28.6812 44.7447 28.8664 44.7447C28.9256 44.7447 28.9701 44.7521 29.0034 44.7669V45.0521L28.9997 45.0558ZM26.1997 45.6632C26.1997 45.4891 26.233 45.3299 26.3034 45.1891C26.3738 45.0484 26.4701 44.941 26.5923 44.8632C26.7145 44.7854 26.8552 44.7484 27.0145 44.7484C27.2589 44.7484 27.4552 44.8336 27.6071 45.004C27.7589 45.1743 27.833 45.3966 27.833 45.678V45.7003C27.833 45.8743 27.7997 46.0299 27.733 46.1706C27.6701 46.3077 27.5738 46.4151 27.4478 46.4965C27.3182 46.578 27.1738 46.6151 27.0182 46.6114C26.7775 46.6114 26.5775 46.5262 26.4293 46.3595C26.2775 46.1891 26.2034 45.9669 26.2034 45.6891V45.6669L26.1997 45.6632ZM26.5071 45.7003C26.5071 45.9003 26.5515 46.0595 26.6441 46.178C26.7367 46.2965 26.8589 46.3595 27.0145 46.3595C27.1701 46.3595 27.2923 46.3003 27.3849 46.178C27.4775 46.0558 27.5219 45.8854 27.5219 45.6669C27.5219 45.4706 27.4775 45.3114 27.3812 45.1891C27.2886 45.0632 27.1664 45.0003 27.0108 45.0077C26.8589 45.0077 26.7367 45.0669 26.6441 45.1891C26.5515 45.3114 26.5034 45.4817 26.5034 45.7077L26.5071 45.7003ZM25.4812 46.4151C25.4812 46.3632 25.496 46.3188 25.5293 46.2817C25.5627 46.2447 25.6071 46.2299 25.6701 46.2299C25.733 46.2299 25.7812 46.2484 25.8145 46.2817C25.8478 46.3188 25.8664 46.3632 25.8627 46.4151C25.8627 46.4632 25.8478 46.5077 25.8145 46.5447C25.7812 46.578 25.733 46.5966 25.6701 46.5966C25.6071 46.5966 25.5589 46.578 25.5293 46.5447C25.496 46.5077 25.4812 46.4669 25.4812 46.4151ZM24.8182 46.5743C24.7997 46.5373 24.7849 46.4743 24.7738 46.3854C24.6293 46.5336 24.4627 46.6077 24.2627 46.6077C24.0849 46.6077 23.9404 46.5558 23.8293 46.4595C23.7108 46.3595 23.6552 46.2336 23.6589 46.078C23.6589 45.8928 23.7293 45.7484 23.8701 45.6447C24.0108 45.541 24.2108 45.4891 24.4701 45.4891H24.7701V45.3484C24.7701 45.241 24.7367 45.1558 24.6738 45.0928C24.6071 45.0299 24.5145 44.9966 24.3886 44.9966C24.2775 44.9966 24.1886 45.0225 24.1145 45.078C24.0404 45.1336 24.0034 45.2003 24.0034 45.278H23.696C23.696 45.1891 23.7293 45.104 23.7923 45.0188C23.8627 44.9299 23.9478 44.8632 24.0515 44.8188C24.1664 44.7706 24.2849 44.7447 24.4108 44.7447C24.6182 44.7447 24.7812 44.7966 24.896 44.9003C25.0145 45.004 25.0738 45.1447 25.0775 45.3262V46.1521C25.0775 46.3151 25.0997 46.4484 25.1404 46.5447V46.5706H24.8182V46.5743ZM24.3108 46.341C24.4071 46.341 24.496 46.3151 24.5849 46.2669C24.6664 46.2225 24.7293 46.1558 24.7738 46.0743V45.7077H24.533C24.1589 45.7077 23.9701 45.8188 23.9701 46.0373C23.9701 46.1336 24.0034 46.2077 24.0664 46.2632C24.1293 46.3188 24.2108 46.3447 24.3145 46.3447M23.4071 45.7003C23.4071 45.9743 23.3441 46.1928 23.2219 46.3595C23.096 46.5262 22.9293 46.6114 22.7145 46.6114C22.4997 46.6114 22.3256 46.541 22.1997 46.404V47.2669H21.8923V44.7854H22.1738L22.1886 44.9854C22.3145 44.8299 22.4849 44.7521 22.7071 44.7521C22.9293 44.7521 23.0923 44.8336 23.2182 44.9966C23.3441 45.1595 23.4071 45.3854 23.4071 45.6743V45.704V45.7003ZM23.1034 45.6632C23.1034 45.4595 23.0589 45.3003 22.9738 45.1854C22.8886 45.0669 22.7701 45.0077 22.6182 45.0077C22.433 45.0077 22.2923 45.0891 22.1997 45.2558V46.1114C22.2923 46.2743 22.433 46.3558 22.6219 46.3558C22.7701 46.3558 22.8849 46.2966 22.9738 46.1817C23.0589 46.0632 23.1034 45.8928 23.1034 45.6632ZM20.9219 46.3595C21.033 46.3595 21.1256 46.3262 21.2071 46.2595C21.2886 46.1965 21.333 46.1151 21.3441 46.0114H21.633C21.6256 46.1188 21.5923 46.2188 21.5256 46.304C21.4627 46.3966 21.3738 46.4706 21.2664 46.5262C21.1589 46.5817 21.0441 46.6077 20.9219 46.6077C20.6775 46.6077 20.4849 46.5262 20.3404 46.3632C20.196 46.2003 20.1256 45.978 20.1256 45.6928V45.641C20.1256 45.4669 20.1589 45.3114 20.2219 45.1743C20.2849 45.0373 20.3775 44.9336 20.496 44.8595C20.6145 44.7854 20.7589 44.7484 20.9219 44.7484C21.1219 44.7484 21.2886 44.8077 21.4219 44.9299C21.5552 45.0521 21.6256 45.2077 21.633 45.4003H21.3441C21.3404 45.2854 21.296 45.1928 21.2145 45.1151C21.133 45.0373 21.033 45.0003 20.9219 45.004C20.7664 45.004 20.6441 45.0595 20.5589 45.1706C20.4738 45.2817 20.4293 45.4447 20.4293 45.6558V45.7151C20.4293 45.9225 20.4701 46.0817 20.5552 46.1928C20.6404 46.304 20.7627 46.3595 20.9182 46.3595M19.4664 44.3077C19.4664 44.2595 19.4812 44.2151 19.5108 44.1817C19.5404 44.1484 19.5849 44.1299 19.6441 44.1299C19.7034 44.1299 19.7478 44.1484 19.7812 44.1817C19.8108 44.2151 19.8256 44.2595 19.8256 44.3077C19.8256 44.3558 19.8108 44.3966 19.7812 44.4299C19.7515 44.4632 19.7034 44.4817 19.6441 44.4817C19.5849 44.4817 19.5404 44.4669 19.5108 44.4299C19.4775 44.3966 19.4626 44.3521 19.4664 44.3077ZM19.4923 46.5743H19.7997V44.7817H19.4923V46.5743ZM18.8108 46.5743C18.7923 46.5373 18.7775 46.4743 18.7664 46.3854C18.6256 46.5336 18.4552 46.6077 18.2552 46.6077C18.0775 46.6077 17.933 46.5558 17.8219 46.4595C17.7034 46.3595 17.6478 46.2336 17.6515 46.078C17.6515 45.8928 17.7219 45.7484 17.8627 45.6447C18.0034 45.541 18.2034 45.4891 18.4626 45.4891H18.7627V45.3484C18.7627 45.241 18.7293 45.1558 18.6664 45.0928C18.6034 45.0299 18.5071 44.9966 18.3849 44.9966C18.2738 44.9966 18.1849 45.0225 18.1108 45.078C18.0367 45.1336 17.9997 45.2003 17.9997 45.278H17.6923C17.6923 45.1891 17.7256 45.104 17.7886 45.0188C17.8589 44.9299 17.9441 44.8632 18.0478 44.8188C18.1627 44.7706 18.2812 44.7447 18.4071 44.7447C18.6145 44.7447 18.7738 44.7966 18.8923 44.9003C19.0071 45.004 19.0701 45.1447 19.0738 45.3262V46.1521C19.0738 46.3151 19.096 46.4484 19.1367 46.5447V46.5706H18.8145L18.8108 46.5743ZM18.3034 46.341C18.3997 46.341 18.4886 46.3151 18.5775 46.2669C18.6589 46.2225 18.7219 46.1558 18.7664 46.0743V45.7077H18.5256C18.1515 45.7077 17.9627 45.8188 17.9627 46.0373C17.9627 46.1336 17.996 46.2077 18.0589 46.2632C18.1219 46.3188 18.2071 46.3447 18.3071 46.3447" fill="#111111"/>
</g>
<defs>
<clipPath id="clip0_9887_4223">
<rect width="60" height="60" fill="white"/>
</clipPath>
</defs>
</svg>
