<svg width="24" height="24" viewBox="0 0 24 24" fill="none" xmlns="http://www.w3.org/2000/svg">
<g opacity="0.7">
<path fill-rule="evenodd" clip-rule="evenodd" d="M12.0039 20.2581C11.4132 20.2502 10.8244 20.1876 10.2452 20.0713C9.97163 20.0245 9.69116 20.0972 9.47476 20.2709C8.36764 21.0842 7.06776 21.595 5.70316 21.7532C5.4785 21.7767 5.27729 21.6137 5.25374 21.389C5.24367 21.293 5.26793 21.1964 5.32223 21.1165H5.32223C5.84961 20.4597 6.22825 19.6963 6.43204 18.879C6.4732 18.6558 6.38597 18.4284 6.20614 18.29H6.20614C4.21585 16.8113 3.03118 14.4873 3.00391 12.0081C3.00391 7.45736 7.03336 3.75806 12.0039 3.75806C16.9745 3.75806 21.0039 7.45736 21.0039 12.0081C21.0039 16.5588 16.9746 20.2581 12.0039 20.2581L12.0039 20.2581Z" fill="#D1D5DB"/>
</g>
</svg>
