<svg width="24" height="24" viewBox="0 0 24 24" fill="none" xmlns="http://www.w3.org/2000/svg">
<g opacity="0.7">
<path fill-rule="evenodd" clip-rule="evenodd" d="M19.5 19.5H4.5C3.67158 19.5 3 18.8284 3 18V12.5765V12.5765C2.99895 12.26 3.25468 12.0026 3.5712 12.0015C3.68633 12.0011 3.79891 12.0354 3.89427 12.0999C4.51435 12.5245 5.24853 12.7511 6 12.75H10.5V13.5315C10.5 13.8552 11.0989 14.25 12 14.25C12.9011 14.25 13.5 13.8552 13.5 13.5315V12.75H18C18.7515 12.7511 19.4856 12.5244 20.1057 12.0999C20.3679 11.9226 20.7242 11.9913 20.9016 12.2536C20.9661 12.3489 21.0004 12.4614 21 12.5765V18C21 18.8284 20.3284 19.5 19.5 19.5L19.5 19.5ZM18 12H13.5V11.25C13.5 11.0429 13.3321 10.875 13.125 10.875H10.875C10.6679 10.875 10.5 11.0429 10.5 11.25V12H6C4.34315 12 3 10.6569 3 9V7.5C3 6.67157 3.67158 6 4.5 6H7.875V4.875C7.875 3.83947 8.71447 3 9.75 3H14.25C15.2855 3 16.125 3.83947 16.125 4.875V6H19.5C20.3284 6 21 6.67157 21 7.5V9C21 10.6569 19.6569 12 18 12ZM14.625 4.875C14.625 4.66789 14.4571 4.5 14.25 4.5H9.75C9.5429 4.5 9.375 4.66789 9.375 4.875V6H14.625V4.875Z" fill="#D1D5DB"/>
</g>
</svg>
