<svg width="24" height="24" viewBox="0 0 24 24" fill="none" xmlns="http://www.w3.org/2000/svg">
<g opacity="0.7">
<path fill-rule="evenodd" clip-rule="evenodd" d="M19.8829 5.25244H4.13285C3.51153 5.25244 3.00785 5.75612 3.00785 6.37744V7.22727V7.22723C3.00785 7.58145 3.17468 7.91498 3.45812 8.12743L11.3336 14.0302C11.7334 14.3303 12.2833 14.3303 12.6831 14.0302L20.5575 8.12814C20.8409 7.91567 21.0077 7.58216 21.0077 7.22796V6.37746V6.37746C21.0077 5.75618 20.5041 5.25252 19.8829 5.25246L19.8829 5.25244ZM20.5639 9.06019L13.1329 14.6303C12.4664 15.1299 11.5502 15.1299 10.8837 14.6303L3.45181 9.05952H3.45181C3.32921 8.96756 3.15527 8.99241 3.06331 9.11502C3.02728 9.16306 3.0078 9.2215 3.00781 9.28155V17.6274C3.00781 18.2488 3.51149 18.7524 4.13281 18.7524H19.8828C20.5041 18.7524 21.0078 18.2488 21.0078 17.6274V9.28223V9.28225C21.0078 9.12899 20.8836 9.00475 20.7303 9.00475C20.6703 9.00475 20.6119 9.0242 20.5639 9.06018L20.5639 9.06019Z" fill="#D1D5DB"/>
</g>
</svg>
