<svg width="24" height="24" viewBox="0 0 24 24" fill="none" xmlns="http://www.w3.org/2000/svg">
<g opacity="0.7">
<path fill-rule="evenodd" clip-rule="evenodd" d="M2.66365 11.3243L7.15937 9.07429C7.52989 8.88911 7.98037 9.03935 8.16556 9.40986C8.35074 9.78038 8.2005 10.2309 7.82999 10.416L4.6753 11.9951L7.83014 13.5742C8.20066 13.7594 8.35091 14.2099 8.16572 14.5804C7.98054 14.9509 7.53005 15.1012 7.15952 14.916L2.6638 12.666C2.29329 12.4797 2.14391 12.0284 2.33015 11.6579C2.4026 11.5137 2.51954 11.3968 2.66365 11.3243L2.66365 11.3243ZM12.7655 6.53989C12.8812 6.1423 13.2974 5.91383 13.695 6.02961C14.0898 6.14457 14.3184 6.55605 14.2073 6.95198L11.2079 17.4456C11.094 17.8437 10.679 18.0741 10.2808 17.9603C9.88296 17.8464 9.65254 17.4318 9.76601 17.0338L12.7655 6.53989ZM15.8192 9.41078C16.0047 9.03976 16.4558 8.88933 16.8269 9.07474L21.3317 11.3292C21.7028 11.5157 21.8525 11.9678 21.666 12.339C21.5934 12.4835 21.4761 12.6007 21.3317 12.6733L16.8269 14.9277V14.9277C16.4548 15.1112 16.0043 14.9583 15.8208 14.5862C15.6386 14.2168 15.7877 13.7697 16.1551 13.5836L19.3166 12.0011L16.1551 10.4186C15.7843 10.2329 15.6339 9.78182 15.8192 9.4107L15.8192 9.41078Z" fill="#D1D5DB"/>
</g>
</svg>
