<svg width="24" height="24" viewBox="0 0 24 24" fill="none" xmlns="http://www.w3.org/2000/svg">
<g opacity="0.7">
<path fill-rule="evenodd" clip-rule="evenodd" d="M18.7505 20.2444H5.25049C4.42206 20.2444 3.75049 19.5728 3.75049 18.7444V5.99438V5.99439C3.75049 5.16596 4.42206 4.49439 5.25049 4.49439H6.37549C6.5826 4.49438 6.75049 4.66228 6.75049 4.86939V5.17992V5.17992C6.73733 5.96839 7.32064 6.63998 8.10319 6.73734C8.92777 6.81854 9.66206 6.21592 9.74327 5.39133C9.74808 5.34249 9.75049 5.29343 9.75049 5.24435V4.86935C9.75049 4.66224 9.91838 4.49435 10.1255 4.49435H13.8755C14.0826 4.49435 14.2505 4.66224 14.2505 4.86935V5.17989V5.17989C14.2373 5.96833 14.8206 6.6399 15.6031 6.7373C16.4277 6.81853 17.162 6.2159 17.2433 5.3913C17.2481 5.34245 17.2505 5.2934 17.2505 5.24431V4.86931V4.86931C17.2505 4.66221 17.4184 4.49431 17.6255 4.49431H18.7505C19.5789 4.49431 20.2505 5.16588 20.2505 5.99431V18.7443V18.7444C20.2505 19.5728 19.5789 20.2444 18.7505 20.2444C18.7505 20.2444 18.7504 20.2444 18.7504 20.2444L18.7505 20.2444ZM7.50049 9.36938C7.50049 9.16228 7.3326 8.99438 7.12549 8.99438H5.62549C5.41838 8.99438 5.25049 9.16228 5.25049 9.36938V10.8694C5.25049 11.0765 5.41838 11.2444 5.62549 11.2444H7.12549C7.3326 11.2444 7.50049 11.0765 7.50049 10.8694V9.36938ZM7.50049 13.1194C7.50049 12.9123 7.3326 12.7444 7.12549 12.7444H5.62549C5.41838 12.7444 5.25049 12.9123 5.25049 13.1194V14.6194C5.25049 14.8265 5.41838 14.9944 5.62549 14.9944H7.12549C7.3326 14.9944 7.50049 14.8265 7.50049 14.6194V13.1194ZM7.50049 16.8694C7.50049 16.6623 7.3326 16.4944 7.12549 16.4944H5.62549C5.41838 16.4944 5.25049 16.6623 5.25049 16.8694V18.3694C5.25049 18.5765 5.41838 18.7444 5.62549 18.7444H7.12549C7.3326 18.7444 7.50049 18.5765 7.50049 18.3694V16.8694ZM11.2505 9.36938C11.2505 9.16228 11.0826 8.99438 10.8755 8.99438H9.37549C9.16838 8.99438 9.00049 9.16228 9.00049 9.36938V10.8694C9.00049 11.0765 9.16838 11.2444 9.37549 11.2444H10.8755C11.0826 11.2444 11.2505 11.0765 11.2505 10.8694V9.36938ZM11.2505 13.1194C11.2505 12.9123 11.0826 12.7444 10.8755 12.7444H9.37549C9.16838 12.7444 9.00049 12.9123 9.00049 13.1194V14.6194C9.00049 14.8265 9.16838 14.9944 9.37549 14.9944H10.8755C11.0826 14.9944 11.2505 14.8265 11.2505 14.6194V13.1194ZM11.2505 16.8694C11.2505 16.6623 11.0826 16.4944 10.8755 16.4944H9.37549C9.16838 16.4944 9.00049 16.6623 9.00049 16.8694V18.3694C9.00049 18.5765 9.16838 18.7444 9.37549 18.7444H10.8755C11.0826 18.7444 11.2505 18.5765 11.2505 18.3694V16.8694ZM15.0005 9.36938C15.0005 9.16228 14.8326 8.99438 14.6255 8.99438H13.1255H13.1255C12.9184 8.99438 12.7505 9.16228 12.7505 9.36938V10.8694C12.7505 11.0765 12.9184 11.2444 13.1255 11.2444H14.6255C14.8326 11.2444 15.0005 11.0765 15.0005 10.8694L15.0005 9.36938ZM15.0005 13.1194C15.0005 12.9123 14.8326 12.7444 14.6255 12.7444H13.1255H13.1255C12.9184 12.7444 12.7505 12.9123 12.7505 13.1194V14.6194C12.7505 14.8265 12.9184 14.9944 13.1255 14.9944H14.6255C14.8326 14.9944 15.0005 14.8265 15.0005 14.6194L15.0005 13.1194ZM15.0005 16.8694C15.0005 16.6623 14.8326 16.4944 14.6255 16.4944H13.1255H13.1255C12.9184 16.4944 12.7505 16.6623 12.7505 16.8694V18.3694C12.7505 18.5765 12.9184 18.7444 13.1255 18.7444H14.6255C14.8326 18.7444 15.0005 18.5765 15.0005 18.3694L15.0005 16.8694ZM18.7505 9.36938C18.7505 9.16228 18.5826 8.99438 18.3755 8.99438H16.8755H16.8755C16.6684 8.99438 16.5005 9.16228 16.5005 9.36938V10.8694C16.5005 11.0765 16.6684 11.2444 16.8755 11.2444H18.3755C18.5826 11.2444 18.7505 11.0765 18.7505 10.8694L18.7505 9.36938ZM18.7505 13.1194C18.7505 12.9123 18.5826 12.7444 18.3755 12.7444H16.8755H16.8755C16.6684 12.7444 16.5005 12.9123 16.5005 13.1194V14.6194C16.5005 14.8265 16.6684 14.9944 16.8755 14.9944H18.3755C18.5826 14.9944 18.7505 14.8265 18.7505 14.6194L18.7505 13.1194ZM18.7505 16.8694C18.7505 16.6623 18.5826 16.4944 18.3755 16.4944H16.8755H16.8755C16.6684 16.4944 16.5005 16.6623 16.5005 16.8694V18.3694C16.5005 18.5765 16.6684 18.7444 16.8755 18.7444H18.3755C18.5826 18.7444 18.7505 18.5765 18.7505 18.3694L18.7505 16.8694ZM15.7505 5.99438H15.7505C15.3363 5.99438 15.0005 5.6586 15.0005 5.24438V3.74438C15.0005 3.33017 15.3363 2.99438 15.7505 2.99438C16.1647 2.99438 16.5005 3.33017 16.5005 3.74438V5.24438V5.24439C16.5005 5.65857 16.1647 5.99434 15.7506 5.99439L15.7505 5.99438ZM8.25049 5.99438C7.83627 5.99438 7.50049 5.6586 7.50049 5.24438V3.74438C7.50049 3.33017 7.83627 2.99438 8.25049 2.99438C8.6647 2.99438 9.00049 3.33017 9.00049 3.74438V5.24438V5.24439C9.00049 5.6586 8.6647 5.99439 8.25049 5.99439V5.99438Z" fill="#D1D5DB"/>
</g>
</svg>
