<svg width="54" height="54" viewBox="0 0 54 54" fill="none" xmlns="http://www.w3.org/2000/svg">
<g clip-path="url(#clip0_9887_4193)">
<path fill-rule="evenodd" clip-rule="evenodd" d="M0 0.22583H53.7545V53.9804H0V0.22583ZM47.6227 42.0368L41.5617 30.3559C45.1781 29.0056 47.717 25.4969 47.717 21.5135C47.717 16.3313 43.5012 12.0953 38.309 12.0718H8.96352C7.19909 12.0718 5.76465 13.5062 5.76465 15.2706V42.0334H12.5395V31.3795H21.1899V24.7326H12.5395V18.85H37.3325L38.2282 18.8601C38.6154 18.8669 38.9891 18.951 39.336 19.1026C40.4068 19.5773 41.097 20.6347 41.097 21.8031C41.097 22.6718 40.7165 23.4901 40.0599 24.049C39.5919 24.4464 39.0262 24.6787 38.4133 24.7326H27.3722C27.3149 24.7326 27.2543 24.7326 27.1971 24.7393H26.6785C26.6011 24.7326 26.5236 24.7292 26.4462 24.7292C26.3553 24.7292 26.2677 24.7326 26.1802 24.7427H26.0388V24.7629C24.9175 24.9447 24.0454 25.8572 23.9309 26.9987H23.9241V27.1536C23.9241 27.1705 23.9233 27.1865 23.9225 27.2024C23.9216 27.2184 23.9208 27.2344 23.9208 27.2513C23.9208 27.2821 23.9236 27.3101 23.9267 27.3405L23.9275 27.3489V42.0368H30.699V31.4064H34.568L40.1374 42.0368H47.6227Z" fill="black"/>
</g>
<defs>
<clipPath id="clip0_9887_4193">
<rect width="54" height="54" fill="white"/>
</clipPath>
</defs>
</svg>
