<svg width="24" height="24" viewBox="0 0 24 24" fill="none" xmlns="http://www.w3.org/2000/svg">
<g opacity="0.7">
<path fill-rule="evenodd" clip-rule="evenodd" d="M19.5078 7.87744V19.8774C19.5078 20.4988 19.0041 21.0024 18.3828 21.0024H5.63281C5.01149 21.0024 4.50781 20.4988 4.50781 19.8774V7.87744C4.50781 7.25612 5.01149 6.75244 5.63281 6.75244H18.3828C19.0041 6.75244 19.5078 7.25612 19.5078 7.87744V7.87744V7.87744ZM7.13281 3.75244C6.92571 3.75244 6.75781 3.58455 6.75781 3.37744V3.37744C6.75781 2.75612 7.26149 2.25244 7.88281 2.25244H16.1328C16.7541 2.25244 17.2578 2.75612 17.2578 3.37744C17.2578 3.58455 17.0899 3.75244 16.8828 3.75244L7.13281 3.75244ZM18.3828 5.62744C18.3828 5.83455 18.2149 6.00244 18.0078 6.00244H6.00781C5.80071 6.00244 5.63281 5.83455 5.63281 5.62744V5.62744C5.63281 5.00612 6.13649 4.50244 6.75781 4.50244H17.2578C17.8791 4.50246 18.3828 5.00613 18.3828 5.62744L18.3828 5.62744Z" fill="#D1D5DB"/>
</g>
</svg>
