<svg width="68" height="54" viewBox="0 0 68 54" fill="none" xmlns="http://www.w3.org/2000/svg">
<g clip-path="url(#clip0_9887_4201)">
<path d="M66.2068 21.2834C65.5744 19.6233 64.2758 18.1412 62.6952 17.0725C58.1323 14.1753 51.1785 13.9689 46.477 16.5882C43.9128 17.8955 42.2275 20.4825 41.703 23.1467C40.7517 27.5238 40.9974 32.7317 44.3696 36.0125C48.3017 39.4595 54.0246 40.221 59.1136 38.805C59.3553 38.7586 60.1216 38.5656 60.65 38.2853L60.7989 38.2215C62.3794 37.5647 63.8867 36.4952 65.0121 35.047C67.6094 31.2495 67.7873 25.5597 66.2068 21.2834ZM57.9213 31.1125C57.7417 31.9426 57.1833 32.8025 56.3029 33.1144C54.9011 33.731 53.0048 33.5601 51.7061 32.8388C50.617 32.0772 50.4768 30.8022 50.3366 29.5957C50.2303 27.2174 50.0586 24.6989 50.7249 22.5246C51.247 21.1779 52.6874 20.8314 53.9899 20.7298C55.3579 20.7298 56.6896 20.9385 57.5346 22.0418C58.0606 22.8333 58.0284 23.8689 58.1323 24.8013C58.0953 26.7662 58.2717 29.1098 57.9213 31.1125ZM16.3188 33.2546C15.1595 33.1837 13.8609 33.2853 12.7387 33.1475L12.7734 21.0369L12.8442 20.9361L16.3188 20.9023C16.355 18.9366 16.3897 16.8284 16.2826 15.0368L3.04981 14.9998L0.870729 15.0376C0.836078 16.8646 0.836078 19.0012 0.870729 20.866C2.0654 20.9031 3.18683 20.866 4.34607 20.9739V32.7025L4.3122 33.1845L0.836078 33.2554C0.763625 35.1521 0.763625 37.0509 0.836078 38.9476H16.318L16.3188 33.2546ZM55.2854 41.5322C53.8127 43.6388 51.9518 45.6738 49.92 47.2567C49.846 47.3646 49.6357 47.3237 49.5688 47.2244C48.6883 46.674 47.7409 46.2235 46.8967 45.6738C48.0213 44.3295 49.1104 42.9844 49.9531 41.4952H48.8608C47.9882 42.7765 47.0731 44.1208 45.9155 45.2556C44.3696 44.6359 42.9662 44.0846 41.3864 43.6672L41.2108 43.5357C41.4565 42.8387 41.9117 42.1843 42.0511 41.4936H41.1037L40.1563 43.3577C38.0875 42.9096 35.8045 42.6655 33.6978 42.5292C33.5915 42.2197 33.7309 41.7708 33.5915 41.4936H32.6788C32.6063 41.9087 32.7843 42.2213 32.5733 42.5655C30.3965 42.6655 28.2907 42.9096 26.2565 43.3278L25.3052 41.4936C24.9579 41.4936 24.5673 41.4275 24.3247 41.5307L25.2005 43.5664L25.0957 43.6672C23.5223 44.1224 21.9753 44.6645 20.4619 45.2911L20.3225 45.2202C19.3374 44.1507 18.3892 42.9828 17.6158 41.8094C17.4418 41.2196 16.7393 41.5645 16.3526 41.4952C17.1921 43.0151 18.3191 44.3586 19.4405 45.7407C18.4931 46.2944 17.5489 46.9118 16.5613 47.3646C14.4139 45.7291 12.5419 43.7607 11.0164 41.5338C10.5943 41.4661 10.3163 41.4968 9.89181 41.5338C12.4198 45.4667 16.3526 48.9153 20.4604 50.951C20.4604 50.951 20.4604 50.9203 20.4982 50.9203C20.5281 50.9203 20.5982 50.9841 20.5281 51.0203C23.3033 52.3662 26.2542 53.3317 29.3759 53.7475C40.1547 55.1603 50.4422 50.5746 56.4069 41.5338C56.0341 41.4954 55.6583 41.4949 55.2854 41.5322ZM40.6493 44.6366L40.7525 44.5673C42.2661 44.9123 43.7025 45.3958 45.0374 46.0495C43.9128 47.3229 42.4732 48.4293 41.1407 49.3602C40.3343 49.8414 39.5239 50.3643 38.6805 50.7754L37.174 50.1202L37.2771 49.8815C38.5435 48.1923 39.6673 46.4653 40.6493 44.6366ZM33.7309 43.601C35.7336 43.6388 37.7355 43.8452 39.5932 44.2917L39.6302 44.3964C38.649 46.2574 37.4173 48.0553 36.0856 49.7422C35.4855 49.813 34.9264 49.5744 34.3302 49.5374L33.7301 49.4665C33.6616 47.4308 33.6246 45.6368 33.7309 43.601ZM26.9582 44.2216C28.7837 43.8767 30.6785 43.601 32.6433 43.601L32.6796 49.4374C31.9409 49.6043 31.1337 49.6043 30.4312 49.7815C28.9916 48.0868 27.7993 46.2574 26.7826 44.3586L26.9582 44.2216ZM21.303 46.0865C22.6757 45.4289 24.1129 44.943 25.5856 44.5666L25.7281 44.6028C26.7432 46.5007 28.0088 48.2931 29.272 50.0871C28.7845 50.3651 28.1844 50.5312 27.6945 50.8116C25.3204 49.6388 23.1601 48.0756 21.3038 46.1873V46.0865H21.303ZM25.8336 51.985C22.8844 51.2235 20.1438 49.913 17.6166 48.1222V48.0151C18.4593 47.5024 19.3051 46.9488 20.2147 46.5653C22.2173 48.5372 24.2869 50.0209 26.5337 51.4322C26.3589 51.6393 26.0786 51.8472 25.8336 51.985ZM38.8569 52.4308C35.1366 53.2293 30.9919 53.26 27.2724 52.3646C27.2016 52.1929 27.4481 52.1559 27.5528 52.0551C30.8179 49.9485 35.906 49.9485 39.1042 52.2228C39.2081 52.4308 38.9278 52.3646 38.8569 52.4308ZM42.2283 51.4684L40.5784 51.9842C40.2965 51.8464 40.0524 51.6393 39.8043 51.4314L39.8752 51.3259C42.1228 50.0201 44.1577 48.4286 46.0895 46.5314C47.0377 46.9102 47.9512 47.4308 48.7962 48.0143C46.8282 49.5744 44.5452 50.6045 42.2283 51.4684ZM10.9479 12.3789C11.8162 11.1772 12.7661 10.0365 13.7908 8.965C14.7004 8.10266 15.5462 7.27498 16.5306 6.65126C17.4442 7.23718 18.4608 7.72544 19.3381 8.27513C18.2506 9.61392 17.1268 10.9653 16.3196 12.4104C16.5637 12.5183 17.022 12.4844 17.3741 12.4104C18.2506 11.1362 19.1956 9.86042 20.3233 8.72087C21.8291 9.2745 23.3057 9.85884 24.8524 10.2747L24.9886 10.4117L24.1145 12.4104C24.5019 12.4844 24.7476 12.4482 25.1312 12.4104C25.4462 11.8276 25.6903 11.174 26.0415 10.5841C28.0804 11.0346 30.2225 11.2748 32.3992 11.3417C32.678 11.5867 32.4685 12.1017 32.574 12.4104H33.5214C33.6246 12.0718 33.486 11.6875 33.6246 11.3803C35.6627 11.2732 37.8032 11.0661 39.7759 10.5826L39.9468 10.6188L40.895 12.4088C41.2116 12.4088 41.6321 12.4829 41.8778 12.338L40.9982 10.3424L41.0714 10.2731C42.6835 9.85884 44.1955 9.23827 45.7399 8.61849C46.8314 9.75646 47.8465 11.1016 48.7624 12.4081C49.1467 12.4081 49.5333 12.4459 49.8145 12.3372C49.3809 11.567 48.8752 10.8397 48.304 10.1652C47.8404 9.5045 47.323 8.88315 46.7573 8.30742V8.12865L49.2152 6.71662L49.5696 6.57881C51.707 8.19668 53.5775 10.1397 55.1129 12.3372C55.5343 12.3372 55.8863 12.4821 56.2383 12.308C51.5289 5.27624 43.7718 0.751925 35.3855 0.100643L35.3485 0.167583L35.2768 0.100643C34.3302 -0.000947029 33.167 -0.0411107 32.1504 0.0604798C31.7653 0.0305539 31.3101 0.0604798 30.8525 0.100643C22.4284 0.751925 14.6705 5.06676 9.82329 12.412C10.1745 12.3789 10.5959 12.5191 10.9479 12.3789ZM25.5194 9.34774L25.3792 9.37766C23.9381 9.00201 22.5323 8.54919 21.1983 7.96485L21.266 7.75773C23.197 5.92989 25.2328 4.41076 27.4796 3.2405C28.0088 3.44762 28.5348 3.61851 29.0609 3.86343L28.9577 4.13276C27.6213 5.79286 26.5708 7.5829 25.5194 9.34774ZM32.5032 10.2762C31.5227 10.414 30.6446 10.2455 29.6578 10.1691C28.7144 10.0305 27.5181 9.9305 26.5708 9.6155C27.589 7.72702 28.7845 5.89524 30.2225 4.20915L32.4701 4.5155C32.574 6.30632 32.5032 8.37751 32.5032 10.2762ZM33.5907 10.3132C33.5214 8.4791 33.5577 6.4465 33.5907 4.54857C34.2956 4.44777 35.0642 4.34067 35.7682 4.23908C37.1369 5.96139 38.4742 7.72702 39.3877 9.6155C37.4894 10.0748 35.5437 10.309 33.5907 10.3132ZM44.7932 7.89476C43.4214 8.47831 42.0157 9.03115 40.5083 9.34774C39.4208 7.51911 38.2277 5.69127 36.8897 3.92485C37.3819 3.65473 37.982 3.44762 38.5072 3.17277C40.7934 4.30995 43.0024 5.92989 44.861 7.78687L44.7932 7.89476ZM40.2965 1.99621C43.2458 2.75696 46.0194 4.06582 48.5474 5.8598L48.4773 5.99761L46.0572 7.34113H45.8785C44.0207 5.48494 41.8448 3.86343 39.6302 2.5837C39.7003 2.34193 40.0531 2.16789 40.2965 1.99621ZM38.8939 1.6497V1.72294C35.8375 3.92485 30.8887 4.13276 27.6607 2.09701C27.4796 1.9592 27.133 1.89226 27.0952 1.65049C30.8187 0.792089 35.2044 0.722787 38.8939 1.6497ZM17.4772 5.92989C19.691 4.30995 22.1472 3.10268 24.7461 2.27421C24.8524 2.16632 24.9201 2.06473 25.0587 2.06473V2.1356C25.3391 2.20333 25.5509 1.89068 25.7958 2.09544C26.0077 2.27421 26.2557 2.41045 26.429 2.58213C24.2539 3.92485 22.111 5.51486 20.1446 7.44272C19.1964 7.10408 18.3222 6.58353 17.4764 5.99761L17.4772 5.92989ZM32.5394 33.5239C29.2397 34.4225 25.6564 33.7373 23.2702 31.2495C22.9907 30.9046 22.8135 30.4935 22.5315 30.1502L17.7938 30.1832C17.719 32.9766 17.6859 36.1857 17.7938 38.9468L23.0576 38.9129L23.1277 37.256C23.727 37.5316 24.3247 37.8758 24.9201 38.1853C28.5711 39.7052 33.271 40.0501 36.8881 38.1853C39.5231 36.7401 40.9281 33.9468 40.5406 30.9393C40.1563 28.0105 37.3464 25.3526 34.505 24.6304L26.0069 22.1788L25.3784 21.867C25.0973 21.6276 24.9209 21.3189 24.9894 20.9361C25.6564 19.8005 27.2031 20.1455 28.3616 20.1762C30.8187 20.5219 33.3458 21.3496 34.7862 23.5932C36.329 23.5932 38.119 23.6232 39.8027 23.557C39.8744 20.729 39.7751 18.2467 39.7334 15.3825C38.1536 15.3463 36.2218 15.3463 34.6444 15.4188C34.5736 15.8291 34.7122 16.4134 34.5365 16.8292L32.9229 15.9661C29.0593 14.3454 23.6522 14.176 20.143 16.6945C17.86 18.3475 17.1599 21.3173 17.7568 23.9382C18.2112 26.4181 20.5982 28.2483 22.8812 29.1083C26.0053 30.2108 29.2688 31.0093 32.4339 32.0772C32.7473 32.2174 33.1678 32.5301 33.1001 32.9088C33.1017 33.2152 32.7835 33.3924 32.5394 33.5239Z" fill="black"/>
</g>
<defs>
<clipPath id="clip0_9887_4201">
<rect width="68" height="54" fill="white"/>
</clipPath>
</defs>
</svg>
