<svg width="24" height="24" viewBox="0 0 24 24" fill="none" xmlns="http://www.w3.org/2000/svg">
<g opacity="0.7">
<path fill-rule="evenodd" clip-rule="evenodd" d="M11.6268 11.625C11.6268 7.86056 16.4998 9.20388 16.4998 6.37496C16.4998 5.27062 15.0551 2.99996 12.3743 2.99996V2.99996C9.89027 3.00272 7.87722 5.01571 7.87433 7.49977V7.49977C7.82818 8.71616 8.63913 9.79907 9.81935 10.0971V10.0971C9.99733 10.128 10.1273 10.2824 10.1274 10.4631V20.625C10.1274 20.8321 9.95955 21 9.75245 21H5.99562V21C5.58487 21.001 5.25011 20.6707 5.24562 20.2599C5.23722 17.5291 8.62137 15.629 8.62137 13.5008V13.4995C8.62137 11.3737 6.3707 10.183 6.3707 7.49973V7.50067C6.3707 4.18657 9.05731 1.49996 12.3714 1.49996C12.3715 1.49996 12.3716 1.49996 12.3716 1.49996V1.49996C15.3651 1.42169 17.8684 3.75804 17.9966 6.74977V6.75161C17.9966 7.06263 17.6216 7.22137 17.6216 7.50161V7.50161C17.6158 7.57143 17.6313 7.64138 17.6663 7.70208L19.4101 10.3596V10.3596C19.5807 10.6324 19.4978 10.992 19.2249 11.1626C19.1322 11.2205 19.025 11.2512 18.9157 11.2512H18.5609V11.2512C18.4574 11.2512 18.3734 11.3351 18.3734 11.4387V14.2419V14.2419C18.3726 14.6619 18.0314 15.0016 17.6114 15.0007C17.6084 15.0007 17.6053 15.0007 17.6023 15.0007V15.0007C17.0602 14.9544 16.5231 14.8621 15.9967 14.7248L15.5522 14.6359V14.6359C15.1272 14.5528 14.7066 14.798 14.5694 15.2087L14.2815 16.0708V16.0708C14.2006 16.313 14.2487 16.5797 14.409 16.7784C15.1114 17.6535 16.1453 19.1215 16.1222 20.2921V20.2921C16.0993 20.6891 15.771 20.9994 15.3734 21H12.0018V21C11.7947 21 11.6268 20.8321 11.6268 20.625L11.6268 11.625Z" fill="#D1D5DB"/>
</g>
</svg>
